<svg width="172" height="172" viewBox="0 0 172 172" fill="none" xmlns="http://www.w3.org/2000/svg">
<path d="M64.2694 15.1598C56.1973 23.2319 56.1364 36.4326 64.2624 44.5585L91.6371 71.9332L90.9495 54.5246L72.6805 36.1405C69.2226 32.6826 69.224 27.0334 72.6835 23.5739C76.143 20.1144 81.792 20.1132 85.2499 23.5711L147.837 86.1582C151.295 89.6161 151.294 95.2652 147.834 98.7247C144.375 102.184 138.725 102.185 135.268 98.7276L119.073 82.5334L113.191 93.3718L126.965 107.146C135.033 115.214 148.234 115.269 156.364 107.139C164.493 99.009 164.496 85.866 156.371 77.7402L93.668 15.0376C85.5419 7.02707 72.3415 7.08767 64.2694 15.1598Z" fill="#FFFFFF20"/>
<path d="M133.712 97.1713L124.606 88.0657C123.625 91.3517 121.78 94.8109 118.609 98.7891L126.85 107.03C126.907 107.088 126.965 107.146 127.023 107.203C129.79 103.975 131.924 100.804 133.481 97.7481C133.539 97.575 133.596 97.4022 133.712 97.1713Z" fill="#83838320"/>
<path d="M115.683 37.1679L116.315 43.9121C120.004 48.2922 121.271 52.6729 124.497 62.7023L137.636 75.8422C137.636 75.6115 137.636 75.6115 137.637 75.3811C137.637 73.8821 137.637 72.3835 137.638 70.7696C137.697 66.1003 136.602 61.0853 134.817 56.3014L115.683 37.1679Z" fill="#83838320"/>
<path d="M117.297 38.7815C126.344 51.2883 137.175 77.5716 121.952 98.4424C106.556 119.601 97.39 122.544 89.0886 124.851L85.1135 114.764C85.2864 114.707 99.468 110.207 111.808 91.6426C123.457 74.0009 112.222 49.2741 103.001 40.8601L115.453 37.0528" fill="#FFFFFF20"/>
<path d="M100.507 104.904C95.9521 108.997 91.9161 111.535 89.0915 112.976C88.5725 113.38 87.9959 113.841 87.4193 114.302L95.0262 123.409C99.1194 121.621 103.732 118.737 109.151 113.548L100.507 104.904Z" fill="#89898920"/>
<path d="M83.1109 46.686C75.3863 48.9937 65.7584 54.011 51.6891 71.6534L44.4853 64.4495C36.4169 56.3812 23.2164 56.3266 15.0865 64.4564C6.95676 72.5862 7.01137 85.6715 15.1373 93.7974L77.7244 156.385C85.793 164.453 98.9935 164.508 107.123 156.378C115.253 148.248 115.256 135.105 107.13 126.979L93.0103 112.859L91.973 111.592C90.8782 110.381 89.7256 108.883 88.7463 107.096C85.5771 101.39 85.9817 95.6831 90.0761 89.7447C98.0914 77.9258 97.8052 68.7605 96.0773 63.227C94.1764 56.8289 90.0269 53.4864 89.5656 53.1407L88.6431 54.2939L87.9522 51.4118L83.1109 46.686ZM23.5006 72.8706C26.9601 69.4111 32.6093 69.4098 36.0671 72.8676L45.6337 82.4343C42.8074 90.1017 42.5749 98.1719 43.7838 105.723L23.4977 85.437C20.0399 81.9792 20.0412 76.33 23.5006 72.8706ZM80.1049 83.118C73.4736 92.8615 72.9524 103.526 78.484 113.324C80.2126 116.321 82.1142 118.799 83.8432 120.644L84.2465 121.047C84.8228 121.623 85.3416 122.142 85.8026 122.603L98.6542 135.455C102.112 138.913 102.111 144.562 98.6514 148.021C95.1919 151.481 89.5427 151.482 86.0848 148.024L68.277 130.216C59.4595 121.399 49.1468 96.2105 61.5445 79.0873C70.5399 66.634 80.168 60.9249 85.3565 58.5025L82.1849 62.5961L82.1274 62.5385C82.9343 63.1148 89.5043 69.3387 80.1049 83.118Z" fill="#FFFFFF20"/>
</svg>
