<svg viewBox="0 0 1003 454" fill="none" xmlns="http://www.w3.org/2000/svg">
<path d="M255.764 453.511H919.531V269.837L793.435 197.527L771.682 188.124L255.764 191.666V453.511Z" fill="none"/>
<path d="M689.939 429.127C696.113 407.97 693.763 388.568 683.482 374.15C674.079 360.923 658.188 353.275 639.099 352.398L277.236 347.696C274.885 347.696 272.848 346.505 271.656 344.75C270.465 342.995 270.183 340.675 270.779 338.293C271.97 334.751 275.48 332.118 279.304 331.836L644.396 327.135C687.651 325.066 734.666 290.086 751.09 247.208L771.965 192.827C772.884 190.594 773.103 188.134 772.592 185.774C749.084 79.3624 654.113 0 540.649 0C435.96 0 347.258 67.6085 315.475 161.42C294.882 146.125 268.459 137.913 240.501 140.545C190.225 145.56 149.604 185.806 144.965 236.081C143.747 248.584 144.637 261.203 147.598 273.412C108.047 274.482 70.4792 290.963 42.9061 319.338C15.3331 347.713 -0.0633459 385.738 0.0001959 425.303C0.0001959 432.638 0.627071 440.035 1.47335 447.338C2.10023 450.88 5.0152 453.513 8.5257 453.513H676.398C678.319 453.476 680.179 452.831 681.711 451.671C683.243 450.511 684.368 448.895 684.924 447.056L689.939 429.127V429.127Z" fill="var(--text-color)"/>
<path d="M805.159 196.587L795.129 196.901C792.778 196.901 790.741 198.656 789.8 200.975L775.696 250.06C769.521 271.217 771.872 290.618 782.152 305.037C791.556 318.264 807.447 325.911 826.535 326.789L903.547 331.491C905.897 331.491 907.935 332.682 909.126 334.437C910.317 336.192 910.599 338.825 910.004 340.894C908.813 344.436 905.302 347.068 901.478 347.351L821.238 352.052C777.733 354.121 730.968 389.1 714.544 431.979L708.651 446.961C707.46 449.907 709.529 452.854 712.726 452.854H988.457C990.053 452.876 991.611 452.368 992.888 451.409C994.164 450.451 995.086 449.096 995.509 447.556C1000.4 430.171 1002.92 412.206 1003 394.147C1002.85 341.751 981.949 291.548 944.87 254.527C907.791 217.507 857.555 196.685 805.159 196.618" fill="var(--text-color)"/>
</svg>
