<svg viewBox="0 0 136 204" fill="none" xmlns="http://www.w3.org/2000/svg">
<path d="M33.9932 204C52.7575 204 67.9864 188.768 67.9864 170V136H33.9932C15.229 136 0 151.232 0 170C0 188.768 15.229 204 33.9932 204Z" fill="var(--text-color)"/>
<path d="M0 102C0 83.232 15.229 68 33.9932 68H67.9864V136H33.9932C15.229 136 0 120.768 0 102Z" fill="var(--text-color)"/>
<path d="M0.000610352 34C0.000610352 15.232 15.2296 0 33.9938 0H67.987V68H33.9938C15.2296 68 0.000610352 52.768 0.000610352 34Z" fill="var(--text-color)"/>
<path d="M67.9864 0H101.98C120.744 0 135.973 15.232 135.973 34C135.973 52.768 120.744 68 101.98 68H67.9864V0Z" fill="var(--text-color)"/>
<path d="M135.973 102C135.973 120.768 120.744 136 101.98 136C83.2154 136 67.9864 120.768 67.9864 102C67.9864 83.232 83.2154 68 101.98 68C120.744 68 135.973 83.232 135.973 102Z" fill="var(--text-color)"/>
</svg>
