<svg viewBox="0 0 472 472" fill="none" xmlns="http://www.w3.org/2000/svg">
<path d="M235.958 0C189.29 0 143.67 13.8302 104.867 39.7416C66.0639 65.653 35.8205 102.482 17.9614 145.571C0.102236 188.66 -4.57052 236.074 4.53398 281.817C13.6385 327.56 36.1113 369.578 69.1107 402.557C102.11 435.536 144.154 457.995 189.925 467.094C235.697 476.193 283.14 471.523 326.256 453.675C369.372 435.827 406.223 405.602 432.151 366.823C458.078 328.044 471.917 282.452 471.917 235.812C471.735 173.327 446.816 113.453 402.605 69.2691C358.394 25.0852 298.482 0.182194 235.958 0ZM104.496 367.194C70.3688 333.274 50.9912 287.281 50.5626 239.181L234.273 421.094C185.738 420.232 139.346 400.964 104.496 367.194ZM276.408 416.041L166.014 305.714L55.6189 195.388C63.3694 160.657 80.9691 128.895 106.312 103.9C131.655 78.9062 163.667 61.739 198.518 54.4532C233.369 47.1675 269.582 50.0718 302.825 62.8186C336.067 75.5654 364.93 97.6148 385.961 126.328L360.679 148.225C346.352 128.547 327.603 112.504 305.941 101.387C284.279 90.2706 260.309 84.39 235.958 84.2188C204.606 84.4108 174.065 94.201 148.451 112.271C122.836 130.34 103.378 155.821 92.698 185.281L286.521 378.984C310.703 370.406 332.334 355.88 349.419 336.745C366.503 317.611 378.491 294.484 384.275 269.5H303.375V235.812H421.354C421.126 277.802 406.674 318.476 380.352 351.205C354.03 383.934 317.392 406.788 276.408 416.041Z" fill="var(--text-color)"/>
</svg>
