<svg viewBox="0 0 1081 347" fill="none" xmlns="http://www.w3.org/2000/svg">
<path d="M73.8932 227.267H0.0559082V264.186H73.8932V227.267Z" fill="var(--text-color)"/>
<path d="M184.599 227.267H110.808V264.186H184.599V227.267Z" fill="var(--text-color)"/>
<path d="M184.622 153.433H0V190.351H184.622V153.433Z" fill="var(--text-color)"/>
<path d="M110.823 79.6031H0.0563354V116.519H110.823V79.6031Z" fill="var(--text-color)"/>
<path d="M184.646 79.6031H147.728V116.519H184.646V79.6031Z" fill="var(--text-color)"/>
<path d="M720.607 79.391C661.315 79.391 630.693 121.319 630.693 173.04C630.693 224.763 660.56 266.696 720.607 266.696C780.654 266.696 810.522 224.763 810.522 173.04C810.524 121.319 779.897 79.391 720.607 79.391ZM765.464 173.208C765.423 206.467 754.215 233.406 720.607 233.406C686.999 233.406 675.79 206.47 675.755 173.208V173.126V173.042C675.79 139.785 687.002 112.849 720.61 112.849C754.215 112.849 765.423 139.785 765.464 173.042V173.126C765.464 173.154 765.464 173.18 765.464 173.208Z" fill="var(--text-color)"/>
<path d="M455.119 264.183V5.25622C455.119 5.25622 489.271 0.405033 491.92 0.0487051C494.919 -0.356531 498.902 1.77911 498.902 6.00148V101.986C505.989 95.2488 513.794 89.8177 522.299 85.6792C530.812 81.5453 540.794 79.4749 552.262 79.4749C562.191 79.4749 570.988 81.1587 578.669 84.5287C586.355 87.8917 592.767 92.6241 597.907 98.705C603.047 104.795 606.948 112.061 609.608 120.511C612.265 128.96 613.595 138.267 613.595 148.43V264.181H569.809V148.43C569.809 137.323 567.238 128.725 562.098 122.635C556.955 116.552 549.244 113.508 538.959 113.508C531.397 113.508 524.309 115.222 517.695 118.652C511.074 122.081 504.811 126.743 498.902 132.656V264.183H455.119Z" fill="var(--text-color)"/>
<path d="M1039.66 266.678C1009.53 266.678 990.647 249.143 990.647 216.431V119.482H956.689C956.689 119.482 963.907 94.52 964.478 92.5543C965.051 90.591 966.544 88.481 969.541 88.0641C972.539 87.6473 990.605 85.1273 990.605 85.1273L998.95 32.0415C998.95 32.0415 1023.47 28.5853 1027.35 28.0054C1031.03 27.4558 1034.35 30.0991 1034.35 34.0979V85.1273H1077.3V119.482H1034.35V215.124C1034.35 228.183 1042.3 233.173 1049.93 233.173C1054.58 233.173 1060.96 230.7 1065.72 228.492C1068.66 227.132 1073.22 228.141 1074.4 232.247C1075.44 235.884 1080.98 255.194 1080.98 255.194C1076.2 258.277 1061.1 266.678 1039.66 266.678Z" fill="var(--text-color)"/>
<path d="M932.628 120.054C924.095 117.283 908.055 112.846 892.797 112.846C877.251 112.846 865.019 118.217 865.019 131.142C865.019 147.287 891.381 151.986 909.426 158.568C921.491 162.967 953.844 171.545 953.844 206.339C953.844 248.605 918.743 266.675 881.299 266.675C843.85 266.675 821.727 252.748 821.727 252.748C821.727 252.748 827.535 232.23 828.712 228.18C829.776 224.535 834.012 223.257 836.712 224.293C846.349 228.008 863.752 233.171 883.423 233.171C903.338 233.171 912.974 227.09 912.974 214.127C912.974 196.874 886.08 191.602 868.293 185.991C856.04 182.13 823.609 173.124 823.609 134.857C823.609 97.1607 856.711 79.4747 892.089 79.4747C922.036 79.4747 936.725 85.7373 947.697 91.3267C947.697 91.3267 941.583 112.634 940.675 115.809C939.604 119.581 936.509 121.312 932.628 120.054Z" fill="var(--text-color)"/>
<path d="M438.026 85.7164C438.026 81.6384 434.542 79.3048 431.218 79.6844C416.524 81.3683 406.041 88.2829 399.259 94.7201C385.942 84.2864 367.456 79.3048 346.709 79.3048C305.113 79.3048 272.613 99.3803 272.613 143.155C272.613 168.284 283.311 185.6 300.298 195.794C287.682 201.765 279.279 214.437 279.279 226.894C279.279 247.734 295.743 254.259 295.743 254.259C295.743 254.259 266.956 268.231 266.956 296.183C266.956 331.965 299.886 346.432 340.125 346.432C398.127 346.432 438.033 322.477 438.033 278.49C438.033 251.418 417.316 236.473 372.17 234.696C345.379 233.639 328.026 232.675 323.726 231.252C318.046 229.365 315.253 224.817 315.253 219.796C315.253 214.253 319.806 208.976 326.985 205.352C333.245 206.46 339.852 207.008 346.714 207.008C388.345 207.008 420.812 186.99 420.812 143.157C420.812 132.528 418.893 123.301 415.404 115.417C421.52 112.155 429.045 109.858 438.03 109.858C438.026 109.858 438.026 89.4357 438.026 85.7164ZM323.393 264.409C323.393 264.409 345.237 265.236 367.065 266.247C391.587 267.381 399.229 272.665 399.229 285.362C399.229 300.876 377.918 315.965 348.137 315.965C319.867 315.965 305.746 306.13 305.746 289.755C305.746 280.36 310.707 269.849 323.393 264.409ZM346.788 176.452C327.082 176.452 311.708 165.986 311.708 143.155C311.708 120.322 327.096 109.856 346.788 109.856C366.483 109.856 381.868 120.294 381.868 143.155C381.868 166.016 366.501 176.452 346.788 176.452Z" fill="var(--text-color)"/>
</svg>
