<svg viewBox="0 0 758 853" fill="none" xmlns="http://www.w3.org/2000/svg">
<path d="M451.798 97.8463L626.861 199.099C655.818 168.629 704.078 167.304 734.549 196.26C739.659 201.181 744.201 206.859 747.797 213.104C768.805 249.631 756.124 296.188 719.598 317.007C713.541 320.413 706.917 323.252 699.726 324.956V527.272C740.416 536.924 765.587 577.804 755.935 618.495C754.232 625.686 751.393 632.689 747.797 638.934C726.789 675.272 680.232 687.763 643.894 666.755C636.892 662.781 630.646 657.671 625.347 651.615L451.23 752.111C464.478 791.855 442.713 834.816 402.969 848.064C395.21 850.714 387.072 852.039 379.123 852.039C337.297 852.039 303.23 818.162 303.23 776.146C303.23 768.955 304.366 761.573 306.448 754.571L131.195 653.507C102.239 683.789 54.1672 685.113 23.6967 655.968C-6.58457 627.011 -7.7201 578.94 21.2363 548.658C31.267 538.06 44.3258 530.679 58.3309 527.272V324.766C17.6404 315.114 -7.72012 274.045 2.12129 233.166C3.82461 226.163 6.47423 219.35 10.0701 213.104C31.0777 176.767 77.6352 164.276 113.973 185.283C120.218 188.879 126.085 193.232 131.006 198.531L306.259 97.4678C294.335 57.3451 317.425 14.9514 357.358 3.21738C364.361 0.946287 371.553 0 378.934 0C420.76 0 454.826 33.8771 454.826 75.7031C455.015 83.2734 453.88 90.6545 451.798 97.8463ZM433.629 129.074C432.872 129.831 432.304 130.399 431.547 131.156L660.738 528.219C661.685 528.029 662.82 527.651 663.577 527.462V324.956C622.887 314.925 598.283 273.856 608.314 233.166C608.503 232.409 608.692 231.273 608.882 230.516L433.629 129.074ZM326.509 131.156L324.427 129.074L148.985 230.327C160.719 270.449 137.251 312.465 97.1287 324.199C96.1824 324.388 95.2361 324.577 94.2898 324.956V527.462L97.318 528.219L326.509 131.156ZM400.32 149.135C386.504 153.11 371.742 153.11 358.115 149.135L128.735 546.009C139.144 556.039 146.525 568.909 150.121 583.103H608.314C611.721 568.909 619.102 556.039 629.7 546.009L400.32 149.135ZM435.332 724.857L609.639 624.172C609.071 622.469 608.693 620.766 608.314 619.252H149.932L149.175 622.09L324.617 723.343C338.432 709.149 357.737 700.254 379.312 700.254C401.455 700.065 421.327 709.528 435.332 724.857Z" fill="var(--text-color)"/>
</svg>
