<svg viewBox="0 0 1953 388" fill="none" xmlns="http://www.w3.org/2000/svg">
<path fill-rule="evenodd" clip-rule="evenodd" d="M350.468 160.15C369.11 159.254 385.614 173.714 387.224 192.371C394.197 282.622 313.072 383.556 196.653 386.789C177.995 387.308 162.452 372.563 161.934 353.858C161.418 335.152 176.123 319.569 194.781 319.05C272.014 316.906 320.942 250.208 318.331 195.616C317.437 176.926 331.824 161.047 350.468 160.15Z" fill="var(--text-color)"/>
<path fill-rule="evenodd" clip-rule="evenodd" d="M34.1573 158.229C52.8219 158.229 67.9526 173.399 67.9526 192.112C67.9526 270.215 130.765 320.762 193.502 319.214C212.162 318.754 227.659 333.546 228.118 352.252C228.578 370.961 213.823 386.499 195.165 386.96C97.0574 389.379 0.0266113 310.85 0.0266113 192.112C0.0266113 173.399 15.4927 158.229 34.1573 158.229Z" fill="var(--text-color)"/>
<path d="M266.043 194.738C266.043 175.581 281.673 160.05 300.953 160.05H351.829C371.111 160.05 387.224 175.581 387.224 194.738C387.224 213.897 371.111 229.428 351.829 229.428H300.953C281.673 229.428 266.043 213.897 266.043 194.738Z" fill="var(--text-color)"/>
<path d="M159.293 194.789C159.293 175.603 174.823 160.05 193.959 160.05C213.097 160.05 228.627 175.603 228.627 194.789C228.627 213.975 213.097 229.53 193.959 229.53C174.823 229.53 159.293 213.975 159.293 194.789Z" fill="var(--text-color)"/>
<path fill-rule="evenodd" clip-rule="evenodd" d="M227.667 32.4773C228.442 51.1741 213.951 66.9602 195.303 67.7366C114.8 71.0886 65.6541 134.349 68.0463 194.415C68.791 213.113 54.5787 228.876 35.929 229.623C17.2792 230.37 0.878721 215.279 0.134062 196.582C-3.76426 98.6969 77.7548 1.93012 192.498 0.0297311C211.147 -0.746736 226.893 13.7805 227.667 32.4773Z" fill="var(--text-color)"/>
<path fill-rule="evenodd" clip-rule="evenodd" d="M647.258 177.358H738.15L738.341 180.035C738.721 185.379 738.721 192.192 738.721 194.444V194.466C738.721 228.343 731.099 252.206 712.375 275.994L712.368 276L712.364 276.008C687.965 306.628 655.073 322.773 616.507 322.773C543.929 322.773 490.937 267.058 490.937 191.096C490.937 114.035 543.534 58.2969 616.507 58.2969C655.057 58.2969 688.329 74.4284 712.367 104.691L714.136 106.919L686.294 129.549L684.458 127.493C674.774 116.647 670.505 112.398 664.123 108.125L664.072 108.091L664.023 108.055C650.741 98.3242 633.819 92.888 616.507 92.888C566.922 92.888 528.777 134.732 528.777 190.722C528.777 245.98 566.936 288.181 615.761 288.181C642.45 288.181 670.257 274.01 684.984 252.733L685.01 252.695L685.037 252.659C693.839 240.763 697.559 229.536 700.122 210.076H647.258V177.358ZM770.374 139.917H804.487V159.449C807.624 154.084 810.898 150.476 815.48 146.898C824.642 139.699 837.232 135.799 850.079 135.799H859.676V170.775L856.43 170.367C853.649 170.019 850.835 170.016 848.96 170.016C834.63 170.016 822.104 176.652 814.064 188.586L814.056 188.597L814.049 188.607C807.038 198.814 804.487 208.277 804.487 227.787V318.279H770.374V139.917ZM920.29 139.917V318.279H886.177V139.917H920.29ZM1090.54 161.227C1074.38 143.772 1055.61 135.799 1031.9 135.799C983.365 135.799 948.094 176.375 948.094 230.034C948.094 283.758 982.678 322.398 1031.9 322.398C1045.35 322.398 1056.94 319.789 1067.41 314.038C1075.81 309.431 1083.36 302.872 1090.54 294.24V318.279H1124.65V62.7897H1090.54V161.227ZM1281.35 192.854H1247.1V188.1C1247.1 180.907 1244.22 175.195 1239.2 171.217C1234.1 167.185 1226.59 164.773 1217.17 164.773C1208.13 164.773 1201.09 167.09 1196.37 170.876C1191.72 174.612 1189.11 179.95 1189.11 186.603C1189.11 190.124 1189.55 192.858 1190.52 195.143C1191.48 197.387 1193.04 199.381 1195.56 201.299C1200.8 205.269 1209.87 208.709 1225.39 213.029C1247.52 219.054 1259.69 224.832 1268.44 233.618C1277.56 242.771 1283.08 255.857 1283.08 269.346C1283.08 285.178 1276.54 298.539 1265.15 307.889C1253.81 317.202 1237.82 322.398 1219.04 322.398C1199.04 322.398 1183.01 317.714 1171.56 308.207C1160.06 298.663 1153.56 284.58 1152.02 266.598L1151.75 263.471H1185.49L1185.74 266.077C1186.61 275.225 1189.98 281.942 1195.38 286.41C1200.82 290.911 1208.66 293.423 1219.04 293.423C1228.26 293.423 1235.59 291.018 1240.54 287.077C1245.44 283.182 1248.22 277.652 1248.22 270.845C1248.22 267.413 1247.66 264.574 1246.52 262.12C1245.37 259.675 1243.56 257.449 1240.82 255.346C1235.22 251.051 1225.93 247.42 1211.24 243.684L1211.22 243.679L1211.19 243.673C1192.35 238.565 1178.3 231.943 1168.94 222.988C1159.45 213.921 1154.99 202.66 1154.99 188.85C1154.99 173.035 1161.42 159.675 1172.67 150.319C1183.88 141 1199.68 135.799 1218.29 135.799C1237.03 135.799 1252.41 140.601 1263.33 149.922C1274.29 159.278 1280.43 172.903 1281.21 189.841L1281.35 192.854ZM1511.89 139.917H1546.01V157.85C1551.2 151.356 1556.78 146.362 1563.03 142.78C1571.48 137.939 1580.95 135.799 1591.98 135.799C1604.13 135.799 1614.34 138.418 1622.59 144.02C1629.46 148.69 1634.77 155.304 1638.71 163.791C1644.52 154.922 1651.14 148.238 1659.08 143.629C1668.45 138.205 1679.44 135.799 1692.65 135.799C1713.02 135.799 1728.94 142.379 1738.6 155.291C1742.92 161.012 1745.72 166.534 1747.39 174.191C1749.06 181.725 1749.61 191.257 1749.61 204.949V318.279H1715.5V211.688C1715.5 201.177 1715.31 194.927 1714.65 190.441C1714 186.122 1712.94 183.47 1711.04 180.187C1706.47 172.321 1696.4 167.02 1683.71 167.02C1671.92 167.02 1663.1 170.963 1657.18 178.222C1651.19 185.572 1647.81 196.716 1647.81 211.688V318.279H1613.69V212.063C1613.69 195.322 1612.19 187.323 1608.45 180.497L1608.44 180.448L1608.41 180.397C1604.18 171.908 1594.94 167.02 1583.02 167.02C1571.28 167.02 1562.16 171.212 1555.92 178.709C1549.63 186.276 1546.01 197.53 1546.01 212.063V318.279H1511.89V139.917ZM1952.27 241.152H1809.66C1810.35 246.771 1811.29 251.14 1812.65 255.001C1814.25 259.526 1816.51 263.479 1819.93 267.984L1819.94 268.005L1819.96 268.027C1830.6 282.63 1846.14 290.428 1863.86 290.428C1884.11 290.428 1903.26 279.356 1912.8 262.324L1914.02 260.164L1944.29 271.509L1942.9 274.359C1928.21 304.228 1897.72 322.398 1863.86 322.398C1811.11 322.398 1773.33 283.595 1773.33 229.659C1773.33 175.041 1810.67 135.799 1862.74 135.799C1914.35 135.799 1952.89 174.943 1952.89 227.039V227.072C1952.89 229.317 1952.89 234.285 1952.51 238.53L1952.27 241.152ZM882.449 94.1256C882.449 82.0666 891.557 72.8987 903.607 72.8987C915.398 72.8987 924.392 82.5581 924.392 94.4999C924.392 106.262 914.833 115.352 903.234 115.352C891.517 115.352 882.449 106.145 882.449 94.1256ZM1075.75 184.162C1066.52 173.3 1053.44 167.02 1037.87 167.02C1021.72 167.02 1008.26 173.408 998.803 184.409C989.313 195.444 983.698 211.304 983.698 230.409C983.698 248.75 989.212 264.15 998.434 274.916C1007.63 285.649 1020.63 291.925 1036 291.925C1067.25 291.925 1090.54 265.873 1090.54 229.659C1090.54 210.737 1085.02 195.059 1075.75 184.162ZM1331.85 161.708C1347.92 145.232 1370.7 135.799 1397.5 135.799C1449.94 135.799 1487.27 175.033 1487.27 229.659C1487.27 281.741 1447.25 322.398 1396.38 322.398C1370.1 322.398 1347.61 312.754 1331.7 296.142C1315.79 279.54 1306.61 256.148 1306.61 228.911C1306.61 201.489 1315.79 178.179 1331.85 161.708ZM1437.26 184.546C1427.73 173.922 1414.08 167.769 1397.5 167.769C1380.53 167.769 1366.6 173.937 1356.89 184.567C1347.16 195.221 1341.47 210.582 1341.47 229.286C1341.47 247.795 1347.16 263.066 1356.84 273.677C1366.51 284.265 1380.35 290.428 1397.13 290.428C1429.21 290.428 1452.41 265.403 1452.41 229.286C1452.41 210.571 1446.81 195.2 1437.26 184.546ZM1810.21 214.424H1916.61C1915.41 203.327 1912.89 196.84 1907.75 189.404C1897.48 175.562 1880.83 167.02 1862.74 167.02C1844.65 167.02 1828.43 175.551 1818.92 189.676C1814.42 196.775 1812.24 202.974 1810.21 214.424ZM903.607 75.7797C893.165 75.7797 885.335 83.6421 885.335 94.1256C885.335 104.609 893.165 112.471 903.234 112.471C913.303 112.471 921.506 104.609 921.506 94.4999C921.506 84.0165 913.675 75.7797 903.607 75.7797ZM903.607 75.7797C893.165 75.7797 885.335 83.6421 885.335 94.1256C885.335 104.609 893.165 112.471 903.234 112.471C913.303 112.471 921.506 104.609 921.506 94.4999C921.506 84.0165 913.675 75.7797 903.607 75.7797Z" fill="var(--text-color)"/>
</svg>
