<svg viewBox="0 0 581 581" fill="none" xmlns="http://www.w3.org/2000/svg">
<path d="M518.112 0H62.1735C27.8485 0 0 27.8484 0 62.1733V518.112C0 552.437 27.8485 580.286 62.1735 580.286H518.112C552.437 580.286 580.286 552.437 580.286 518.112V62.1733C580.286 27.8484 552.437 0 518.112 0ZM315.789 452.571C315.789 509.045 282.63 534.821 234.316 534.821C190.665 534.821 165.407 512.283 152.455 484.953L196.883 458.141C205.431 473.296 213.203 486.119 231.985 486.119C249.86 486.119 261.258 479.125 261.258 451.794V266.439H315.789V452.571V452.571ZM444.799 534.821C394.154 534.821 361.383 510.729 345.451 479.125L389.879 453.478C401.537 472.518 416.821 486.637 443.634 486.637C466.171 486.637 480.679 475.368 480.679 459.695C480.679 441.043 465.912 434.437 440.914 423.427L427.313 417.598C387.937 400.889 361.901 379.776 361.901 335.348C361.901 294.417 393.118 263.331 441.691 263.331C476.404 263.331 501.274 275.377 519.148 306.981L476.663 334.182C467.337 317.473 457.234 310.867 441.561 310.867C425.629 310.867 415.526 320.971 415.526 334.182C415.526 350.503 425.629 357.109 449.074 367.342L462.674 373.17C509.045 392.988 535.08 413.324 535.08 458.918C535.08 507.88 496.481 534.821 444.799 534.821Z" fill="var(--text-color)"/>
</svg>
