<svg id="Layer_1" data-name="Layer 1" xmlns="http://www.w3.org/2000/svg" viewBox="0 0 141.73 141.73"><title>cassius</title><path d="M40.49,3.83c-2,1.55-2.65,3.69-2.74,6.14-.13,3.51-.34,7-.52,10.53-.17,3.25-.32,6.5-.49,9.75-.2,3.68-.38,7.35-.53,11-.14,3.15-.34,6.29-.49,9.43q-.26,5.09-.52,10.18c-.12,2.52-.21,5-.35,7.58-.17,3.08-.41,6.17-.46,9.26a20.84,20.84,0,0,0,1.87,8.58A30.83,30.83,0,0,0,43.64,96.8a28.71,28.71,0,0,0,13.9,7.57,16,16,0,0,0,9-.51,1.74,1.74,0,0,1,.84-.12l-3.51,3.13-5.15,4.49c-2.62,2.3-5.25,4.58-7.87,6.89a20.82,20.82,0,0,1-3.77,2.82,13.29,13.29,0,0,1-5.87,1.62,22.53,22.53,0,0,1-15.62-5.49,26.64,26.64,0,0,1-8.44-11.59,20.07,20.07,0,0,1-1.22-5.48,48.74,48.74,0,0,1,.5-8.46c.2-2.21.35-4.42.55-6.63s.43-4.24.63-6.36c.14-1.42.24-2.85.37-4.28.21-2.26.35-4.53.64-6.78.19-1.42.25-2.85.38-4.28.21-2.29.43-4.57.65-6.86l.36-4.2c.22-2.34.45-4.69.66-7,.19-2.15.34-4.31.54-6.46s.45-4.47.63-6.7A16.77,16.77,0,0,1,22.22,29c.56-2.09,2.05-3.61,3.23-5.3,3.06-4.35,6.17-8.66,9.29-13,1.53-2.09,2.89-4.3,4.62-6.23a2.73,2.73,0,0,1,1-.7A.11.11,0,0,1,40.49,3.83Z" style="fill:#dcd8d8"/><path d="M67.72,103.37a12.13,12.13,0,0,0,5.07-4.88,12.34,12.34,0,0,0,1.55-5.13A66,66,0,0,0,74,83.62c0-.36-.18-.85.08-1.06s.59.19.86.34c6.91,3.9,14.4,6.2,22.09,7.92a.89.89,0,0,1,.82.94c.26,3,.5,6,1,9a24.82,24.82,0,0,0,2,6.07,33.83,33.83,0,0,0,6,8.86,25.88,25.88,0,0,0,10.81,7.4,11.47,11.47,0,0,0,8.22.08l-6.74,4.37-9.73,6.25c-1.82,1.17-3.61,2.41-5.46,3.53a10.37,10.37,0,0,1-6.73,1.35,19.48,19.48,0,0,1-10.73-5.26,27.58,27.58,0,0,1-8.7-14.35,23.73,23.73,0,0,1-.59-4.84c-.07-2-.23-4-.32-6,0-.45-.34-.55-.64-.69l-7.59-3.72C68.4,103.74,68.13,103.59,67.72,103.37Z" style="fill:#dcd8d8"/><path d="M62.59,61.1c-2.18-.8-4.38-1.47-6.61-2.05a19.08,19.08,0,0,0-4.21-.8,22.61,22.61,0,0,0-4.18.35c-.7.11-.7-.16-.68-.65a18.79,18.79,0,0,1,1.57-6.43,22.1,22.1,0,0,1,5.79-8.21A17.64,17.64,0,0,1,64,38.86a24.69,24.69,0,0,1,10.85,1.4,77.35,77.35,0,0,1,11.08,4.53c2,1,4,2.27,6,3.29,1.21.6,1.32,1.61,1.38,2.69A3.85,3.85,0,0,1,89.88,55a18.94,18.94,0,0,1-7.92-.6,22.55,22.55,0,0,0-7.44-.73c-4.92.47-8.41,2.94-10.15,7.66a22.75,22.75,0,0,0-1.32,9.28c.11,1.72,0,3.43.13,5.15.16,3.11.09,6.24.23,9.35A10,10,0,0,1,63,89.63a5.31,5.31,0,0,1-5.6,3c-4.8-.49-7.83-3.34-10-7.35a10.66,10.66,0,0,1-.87-6.34A4.46,4.46,0,0,1,48,76.54c2.85-3,5.74-6,8.6-9,2-2.06,3.91-4.13,5.86-6.2A1.23,1.23,0,0,0,62.59,61.1Z" style="fill:#dcd8d8"/><path d="M94,67c-.85.67-1.5,1.36-2.21,2-2.75,2.45-5.45,5-8.16,7.46a.92.92,0,0,1-1.13.2,73.08,73.08,0,0,1-8.3-4.16.79.79,0,0,1-.51-.78,10.35,10.35,0,0,1,1.73-6.06,6.15,6.15,0,0,1,4.81-2.4A22.48,22.48,0,0,1,86,64a22.52,22.52,0,0,0,9.6.1,7.92,7.92,0,0,0,6.32-8,60.19,60.19,0,0,0-.77-7.1c-.24-2-.5-3.95-.76-5.92-.2-1.62-.41-3.23-.62-4.84a6,6,0,0,1,0-1.94c.28-1.54,1.68-2.23,3.6-1.81a10.3,10.3,0,0,1,5,3,10.17,10.17,0,0,1,3,4.89c.43,1.88.7,3.8,1,5.71.39,2.29.78,4.58,1.11,6.88.41,2.89,1.25,5.74,1.23,8.65a20,20,0,0,1-4.25,12.88,12.22,12.22,0,0,1-7.79,4.51,18,18,0,0,1-6.94-.26c-.48-.1-.64-.29-.63-.78a81.38,81.38,0,0,0-.83-9.22C94.23,69.58,94.11,68.36,94,67Z" style="fill:#dcd8d8"/><path d="M121.94,108.22a4.28,4.28,0,0,1-.7,3,3.85,3.85,0,0,1-3.7,1.48c-3.61-.68-5.92-3-7.77-6a14.77,14.77,0,0,1-1.9-6.66c-.18-1.83-.51-3.66-.77-5.49a1.51,1.51,0,0,1,0-.42c.1-.7-.5-1.49-.07-2s1.26-.34,1.91-.47A15.46,15.46,0,0,0,118.05,86c.1-.12.17-.33.37-.24s.11.29.14.45c.89,5.42,1.84,10.83,2.65,16.26A26.5,26.5,0,0,1,121.94,108.22Z" style="fill:#dcd8d8"/><path d="M47.24,32.91c0-3.59.2-7,.21-10.51,0-2.87.16-5.74.15-8.62a3,3,0,0,1,3-3c3-.18,5.43,1.23,7.59,3.12a9.87,9.87,0,0,1,3.49,5.34A19.87,19.87,0,0,1,62,22.49c.09,2.05-.12,4.11.13,6.16.06.54-.36.39-.64.41-1.37.06-2.74,0-4.13.14a22.74,22.74,0,0,0-9.08,3.15C48,32.52,47.67,32.67,47.24,32.91Z" style="fill:#dcd8d8"/><path d="M93.15,28.21c-1.67,1.64-1.85,3.7-1.62,5.87s.48,4.26.73,6.5c-1.6-.89-3.11-1.73-4.63-2.56-.77-.41-1.55-.8-2.33-1.19-.94-.48-1-.54-.07-1.27A46.39,46.39,0,0,0,90,31.11,36.34,36.34,0,0,1,93,28C93.14,28,93.19,28.06,93.15,28.21Z" style="fill:#dcd8d8"/><path d="M40.49,3.83h-.18A4.29,4.29,0,0,1,42.54,3Z" style="fill:#e9e8e8"/><path d="M93.15,28.21,93,28a2,2,0,0,1,1.4-.74Z" style="fill:#e6e4e4"/></svg>