<?xml version="1.0" encoding="utf-8"?>
<!-- Generator: Adobe Illustrator 23.0.5, SVG Export Plug-In . SVG Version: 6.00 Build 0)  -->
<svg version="1.1" id="Layer_1" xmlns="http://www.w3.org/2000/svg" xmlns:xlink="http://www.w3.org/1999/xlink" x="0px" y="0px"
	 viewBox="0 0 297.6 297.6" style="enable-background:new 0 0 297.6 297.6;" xml:space="preserve">
<style type="text/css">
	.st0{fill:#FFFFFF;}
	.st1{fill:#838383;}
	.st2{fill:#898989;}
</style>
<g>
	<path class="st0" d="M191.5,69c-14,0-25.5,11.4-25.5,25.5V142l14.5-15.7l0.1-31.8c0-6,4.9-10.9,10.9-10.9s10.9,4.9,10.9,10.9v108.6
		c0,6-4.9,10.9-10.9,10.9s-10.9-4.9-10.9-10.9v-28.1l-14.5,4.3v23.9c0,14,11.4,25.5,25.5,25.5s25.5-11.4,25.5-25.5V94.4
		C217,80.4,205.5,69,191.5,69z"/>
	<g>
		<path class="st1" d="M180.6,200.4v-15.8c-3.7,2-8.3,3.4-14.5,4.1V203c0,0.1,0,0.2,0,0.3c5.2-0.4,9.8-1.3,13.8-2.6
			C180.1,200.6,180.3,200.5,180.6,200.4z"/>
		<path class="st1" d="M217,132.7l-5.3,6.4c-0.6,7-3.3,11.9-9.2,23.4v22.8c0.2-0.2,0.2-0.2,0.4-0.4c1.3-1.3,2.6-2.6,4-4
			c4.1-4,7.5-9.3,10.1-15V132.7z"/>
	</g>
	<g>
		<path class="st0" d="M217,135.5c-3,18.7-16.4,50.9-47.7,55.8c-31.7,5-42.2-0.4-51.4-5.6l5.3-12.2l0,0c0.2,0.1,16.4,8.5,43.2,3.1
			c25.4-5.2,37.1-36.4,36.4-51.7l14.1,7.5"/>
	</g>
	<path class="st2" d="M145.1,178.3c-7.5-0.4-13.2-1.7-16.9-2.9c-0.8-0.1-1.7-0.2-2.6-0.3l-1.3,14.5c5.1,2,11.6,3.5,20.8,3.7V178.3z"
		/>
	<path class="st0" d="M180.5,112.7C180.5,112.7,180.5,112.7,180.5,112.7c-8.7-4.7-21.4-8.7-48.9-5.6V94.6c0-14-11.4-25.5-25.5-25.5
		S80.7,80.5,80.7,94.6v108.6c0,14,11.4,25.5,25.5,25.5s25.5-11.4,25.5-25.5v-24.5l0.2-2c0.1-2,0.4-4.3,1.1-6.7
		c2.2-7.7,7.5-12.3,16.2-13.9c17.2-3.3,24.9-11.5,28.2-17.8c3.9-7.2,3.2-13.7,3.1-14.4l-1.8,0.2l1.9-3.1 M106.1,83.7
		c6,0,10.9,4.9,10.9,10.9v16.6c-9.1,4.2-16.3,11-21.8,18.6V94.6C95.2,88.6,100.1,83.7,106.1,83.7z M146.3,141.7
		c-14.2,2.7-23.9,11.5-27.6,24.8c-1.1,4.1-1.6,7.9-1.7,11c0,0,0,0,0,0v0.7c0,1,0,1.9,0,2.7v22.3c0,6-4.9,10.9-10.9,10.9
		s-10.9-4.9-10.9-10.9v-30.9c0-15.3,12.9-46.1,38.5-50.2c18.6-3,31.9,0.4,38.5,2.8l-6.3,0.8c0,0,0-0.1,0-0.1
		C166.1,126.8,166.4,137.9,146.3,141.7z"/>
</g>
</svg>
