<svg viewBox="0 0 490 491" fill="none" xmlns="http://www.w3.org/2000/svg">
<path d="M355.11 170.122H354.935C354.82 170.095 354.716 170.034 354.637 169.947C354.492 169.789 354.384 169.599 354.324 169.393C354.263 169.186 354.251 168.969 354.288 168.757L364.175 108.364L410.568 154.704L362.25 175.074C362.116 175.128 361.974 175.158 361.83 175.162H361.725C361.725 175.162 361.603 175.162 361.48 174.969C359.668 172.98 357.51 171.338 355.11 170.122ZM422.38 166.447L471.975 215.989C482.282 226.279 487.428 231.424 489.318 237.374C489.596 238.247 489.824 239.135 490 240.034L371.49 189.914H371.297C370.825 189.722 370.265 189.494 370.265 189.004C370.265 188.514 370.825 188.287 371.297 188.094H371.438L422.38 166.447ZM487.97 255.942C483.46 262.694 478.082 268.825 471.975 274.177L416.08 330.002L343.77 314.952H343.385C342.755 314.847 342.055 314.742 342.055 314.147C341.775 311.168 340.887 308.278 339.445 305.656C338.004 303.034 336.039 300.736 333.672 298.904C333.375 298.607 333.463 298.152 333.533 297.714V297.539L347.147 214.134V213.854C347.147 213.224 347.34 212.472 347.935 212.472C350.849 212.109 353.662 211.171 356.21 209.71C358.757 208.25 360.989 206.298 362.775 203.967C362.864 203.825 362.984 203.706 363.125 203.617C363.569 203.501 364.04 203.564 364.438 203.792L487.97 255.942ZM403.218 342.847L311.29 434.687L327.04 338.069V337.929V337.579C327.162 337.264 327.495 337.142 327.827 337.002H327.985C331.427 335.535 334.474 333.274 336.875 330.404C337.159 330.018 337.566 329.74 338.03 329.617C338.152 329.599 338.276 329.599 338.397 329.617L403.218 342.847ZM291.83 454.112L281.47 464.472L166.915 299.079L166.775 298.904C166.567 298.701 166.448 298.425 166.442 298.134C166.482 297.925 166.579 297.732 166.723 297.574L166.845 297.417C167.195 296.909 167.493 296.402 167.825 295.842L168.087 295.404C168.231 295.094 168.462 294.832 168.752 294.652C169.053 294.546 169.38 294.546 169.68 294.652L296.607 320.797C296.963 320.855 297.3 320.999 297.587 321.217C297.721 321.37 297.806 321.558 297.832 321.759V322.004C298.746 325.303 300.402 328.349 302.674 330.909C304.946 333.469 307.773 335.475 310.94 336.774C311.29 336.949 311.132 337.352 310.94 337.772C310.86 337.959 310.796 338.152 310.747 338.349C309.225 348.027 295.505 431.572 291.83 454.112V454.112ZM270.182 475.724C265.518 481.37 259.621 485.872 252.945 488.884C247.923 490.477 242.532 490.477 237.51 488.884C231.542 486.994 226.397 481.884 216.09 471.559L101.045 356.637L131.093 310.069C131.217 309.837 131.39 309.634 131.6 309.474C131.783 309.387 131.983 309.342 132.186 309.342C132.389 309.342 132.589 309.387 132.772 309.474C135.725 310.385 138.8 310.839 141.89 310.822C145.952 310.799 149.97 309.985 153.72 308.424C153.864 308.334 154.031 308.287 154.201 308.287C154.371 308.287 154.538 308.334 154.682 308.424C154.814 308.556 154.937 308.696 155.05 308.844L270.182 475.724ZM89.9325 345.559L63.56 319.187L115.693 296.979C115.831 296.955 115.974 296.955 116.113 296.979C116.55 296.979 116.795 297.417 117.04 297.819L117.215 298.099C117.705 298.852 118.212 299.517 118.702 300.164L118.86 300.374C119 300.584 118.86 300.794 118.755 301.022L89.9325 345.559ZM51.8875 307.532L18.4975 274.177C12.81 268.507 8.6975 264.394 5.845 260.842L107.345 281.842H107.73C108.36 281.947 109.06 282.052 109.06 282.647C109.06 283.242 108.308 283.574 107.66 283.837L107.363 283.959L51.8875 307.532ZM0 243.692C0.123551 241.541 0.511469 239.413 1.155 237.357C3.045 231.407 8.155 226.262 18.4975 215.972L61.25 173.324C68.25 183.649 114.818 250.779 120.243 258.549L120.417 258.777C120.767 259.249 121.153 259.757 120.768 260.142C118.817 262.176 117.118 264.438 115.71 266.879C115.566 267.188 115.35 267.458 115.08 267.667C114.906 267.738 114.711 267.738 114.538 267.667L0 243.692ZM72.66 161.879L130.113 104.479C135.52 106.842 155.173 115.137 172.743 122.557C186.06 128.174 198.187 133.302 201.985 134.929C202.174 134.977 202.352 135.064 202.505 135.185C202.659 135.305 202.786 135.457 202.878 135.629C202.957 135.88 202.957 136.149 202.878 136.399C202.495 138.212 202.302 140.059 202.3 141.912C202.303 148.584 204.916 154.991 209.58 159.762C209.965 160.129 209.58 160.689 209.247 161.179L209.072 161.442L150.745 251.707C150.613 251.954 150.428 252.17 150.203 252.337C150.028 252.41 149.841 252.448 149.651 252.448C149.462 252.448 149.274 252.41 149.1 252.337C146.814 251.738 144.463 251.42 142.1 251.392C139.858 251.465 137.627 251.735 135.433 252.197V252.197C135.326 252.249 135.21 252.277 135.091 252.277C134.973 252.277 134.856 252.249 134.75 252.197C134.522 252.015 134.327 251.797 134.172 251.549L72.66 161.879ZM141.75 92.8243L216.142 18.5193C226.45 8.22929 231.595 3.08428 237.562 1.19428C242.584 -0.398095 247.976 -0.398095 252.998 1.19428C258.965 3.08428 264.11 8.19429 274.417 18.5193L290.535 34.6193L237.597 116.537C237.461 116.771 237.283 116.979 237.072 117.149C236.891 117.231 236.694 117.274 236.495 117.274C236.296 117.274 236.099 117.231 235.917 117.149C233.307 116.394 230.603 116.012 227.885 116.012C221.869 116.062 216.045 118.133 211.347 121.892C210.997 122.224 210.49 122.014 210.053 121.892C203.14 118.829 149.398 96.1318 141.75 92.8243ZM301.753 45.8368L350.612 94.6443L338.853 167.444V167.637C338.847 167.805 338.811 167.971 338.748 168.127C338.625 168.389 338.38 168.442 338.117 168.494H337.838C335.421 169.257 333.145 170.41 331.1 171.907L330.855 172.134C330.794 172.221 330.716 172.293 330.626 172.348C330.536 172.402 330.435 172.437 330.33 172.449C330.145 172.465 329.958 172.435 329.787 172.362L255.36 140.774H255.203C254.73 140.582 254.17 140.354 254.17 139.864C253.748 135.825 252.452 131.925 250.372 128.437L250.215 128.174C249.848 127.579 249.462 126.967 249.76 126.424L301.753 45.8368ZM251.423 155.824L321.195 185.347C321.599 185.457 321.945 185.721 322.158 186.082C322.227 186.316 322.227 186.565 322.158 186.799C321.932 187.906 321.809 189.03 321.79 190.159V192.119C321.79 192.592 321.283 192.802 320.828 192.994H320.67C309.627 197.702 165.48 259.092 165.27 259.092C165.151 259.106 165.029 259.095 164.915 259.059C164.8 259.023 164.694 258.962 164.605 258.882C164.22 258.514 164.605 257.954 164.938 257.464L165.113 257.202L222.46 168.529L222.565 168.372C222.898 167.829 223.282 167.234 223.895 167.234L224.472 167.322C225.664 167.527 226.869 167.644 228.077 167.672C232.348 167.688 236.556 166.651 240.329 164.651C244.102 162.652 247.323 159.752 249.707 156.209C249.818 156.018 249.96 155.846 250.127 155.702C250.336 155.613 250.564 155.577 250.791 155.599C251.017 155.62 251.234 155.698 251.423 155.824V155.824ZM171.5 273.267L328.598 206.347C328.768 206.362 328.925 206.444 329.035 206.574C329.752 207.274 330.512 207.929 331.31 208.534L331.66 208.762C331.975 208.954 332.307 209.147 332.325 209.479V209.794L318.85 292.324V292.657C318.85 293.304 318.675 294.039 318.062 294.039C314.487 294.287 311.025 295.401 307.976 297.285C304.927 299.169 302.383 301.767 300.562 304.854V304.959C300.421 305.261 300.196 305.516 299.915 305.694C299.624 305.782 299.313 305.782 299.022 305.694L173.74 279.882C173.74 279.882 171.64 273.284 171.5 273.267Z" fill="var(--text-color)"/>
</svg>
