<svg viewBox="0 0 1445 874" fill="none" xmlns="http://www.w3.org/2000/svg">
<path d="M340.804 227.757H613.226V249.458H365.782V412.775H598.468V434.476H365.782V613.783H616.062V635.485H340.804V227.757V227.757ZM637.627 227.757H666.576L794.84 407.063L925.941 227.757L1104.26 0L811.3 425.909L962.264 635.485H932.181L794.84 444.755L656.932 635.485H627.416L779.515 425.909L637.637 227.757H637.627ZM973.051 249.458V227.757H1283.49V249.458H1140.48V635.475H1115.5V249.458H973.061H973.051ZM0 227.757H31.2178L461.645 873.266L283.767 635.485L26.1028 258.593L24.9683 635.485H0V227.757V227.757ZM1280.98 607.23C1275.87 607.23 1272.05 603.269 1272.05 598.155C1272.05 593.03 1275.87 589.069 1280.97 589.069C1286.14 589.069 1289.9 593.03 1289.9 598.155C1289.9 603.269 1286.14 607.23 1280.97 607.23H1280.98ZM1305.51 583.338H1318.88C1319.07 590.595 1324.36 595.465 1332.12 595.465C1340.81 595.465 1345.73 590.233 1345.73 580.414V518.252H1359.33V580.472C1359.33 598.155 1349.13 608.336 1332.24 608.336C1316.4 608.336 1305.52 598.458 1305.52 583.338H1305.51ZM1377.12 582.555H1390.61C1391.76 590.898 1399.9 596.199 1411.63 596.199C1422.55 596.199 1430.57 590.526 1430.57 582.732C1430.57 576.032 1425.47 572.003 1413.87 569.264L1402.57 566.526C1386.73 562.81 1379.49 555.123 1379.49 542.203C1379.49 526.536 1392.24 516.11 1411.37 516.11C1429.17 516.11 1442.18 526.536 1442.96 541.343H1429.72C1428.45 533.245 1421.41 528.179 1411.2 528.179C1400.44 528.179 1393.28 533.362 1393.28 541.284C1393.28 547.563 1397.89 551.162 1409.32 553.841L1418.97 556.218C1436.95 560.423 1444.36 567.739 1444.36 580.961C1444.36 597.783 1431.35 608.336 1410.59 608.336C1391.16 608.336 1378.09 598.272 1377.12 582.546V582.555Z" fill="var(--text-color)"/>
</svg>
