<svg viewBox="0 0 1425 243" fill="none" xmlns="http://www.w3.org/2000/svg">
<path fill-rule="evenodd" clip-rule="evenodd" d="M566.866 71.899C568.811 73.9272 569.855 76.6548 569.761 79.4637V224.897C569.842 228.011 568.677 231.029 566.525 233.28C564.373 235.538 561.365 236.776 558.248 236.687C556.5 236.69 554.764 236.414 553.104 235.87C551.583 235.401 550.218 234.529 549.152 233.348L454.964 110.677V226.158C455.05 228.976 453.968 231.704 451.976 233.698C449.983 235.692 447.255 236.773 444.438 236.687C441.648 236.794 438.946 235.703 437.012 233.689C435.088 231.663 434.057 228.95 434.151 226.158V80.4178C434.08 77.3129 435.316 74.3209 437.557 72.1716C439.655 70.0188 442.558 68.8445 445.562 68.9344C447.453 68.9253 449.327 69.2841 451.081 69.9908C452.676 70.6085 454.076 71.6442 455.134 72.9894L548.914 195.933V79.4637C548.828 76.6457 549.909 73.9174 551.902 71.9238C553.895 69.9303 556.623 68.8485 559.44 68.9344C562.222 68.8316 564.919 69.9081 566.866 71.899ZM760.352 71.899C762.389 74.1644 763.464 77.1343 763.35 80.1793V172.183C763.545 184.074 760.658 195.814 754.97 206.258C749.583 216.111 741.578 224.284 731.84 229.872C721.749 235.664 710.294 238.652 698.661 238.527C686.924 238.713 675.347 235.786 665.108 230.043C655.325 224.478 647.282 216.302 641.876 206.428C636.188 195.984 633.301 184.245 633.496 172.353V80.3497C633.407 77.2314 634.645 74.2218 636.902 72.0693C639.2 69.8208 642.307 68.5926 645.521 68.6618C648.551 68.6638 651.451 69.8931 653.56 72.0693C655.792 74.1823 657.029 77.1397 656.966 80.2134V172.217C656.843 180.072 658.831 187.815 662.723 194.638C670.063 207.581 683.786 215.583 698.661 215.595C706.129 215.648 713.481 213.745 719.986 210.075C726.548 206.447 732.009 201.114 735.792 194.638C739.746 187.836 741.772 180.085 741.651 172.217V80.2134C741.54 77.1931 742.56 74.2402 744.512 71.9331C746.524 69.6797 749.43 68.4322 752.449 68.5255C755.447 68.4566 758.328 69.6865 760.352 71.899ZM944.743 219.445C946.18 221.423 946.934 223.816 946.889 226.26C947.015 229.346 945.768 232.328 943.483 234.404C941.375 236.398 938.583 237.507 935.682 237.505C931.953 237.647 928.419 235.84 926.348 232.735L879.782 170.547L834.272 232.632C832.222 235.789 828.701 237.678 824.938 237.641C822.187 237.702 819.534 236.616 817.615 234.643C815.71 232.888 814.624 230.418 814.617 227.828C814.67 224.943 815.689 222.159 817.512 219.922L866.633 153.032L817.274 86.6536C815.733 84.7141 814.882 82.316 814.855 79.8385C814.792 76.7649 816.029 73.8075 818.262 71.6945C820.371 69.5183 823.271 68.289 826.301 68.287C828.087 68.2961 829.847 68.7158 831.445 69.5137C833.133 70.3145 834.579 71.5491 835.635 73.0916L881.656 134.938L927.234 73.705C929.246 70.5896 932.627 68.6261 936.329 68.4233C939.218 68.4388 941.966 69.6768 943.892 71.8308C945.985 73.7013 947.216 76.3506 947.298 79.157C947.217 81.619 946.385 83.9972 944.914 85.9721L894.907 152.555L944.743 219.445ZM1117.62 71.899C1119.87 73.9545 1121.12 76.8915 1121.03 79.9408C1121.11 82.949 1119.86 85.8411 1117.62 87.8462C1115.31 89.7985 1112.36 90.8193 1109.34 90.7086H1066.69V225.204C1066.75 228.277 1065.52 231.233 1063.29 233.348C1058.3 237.8 1050.77 237.8 1045.78 233.348C1043.56 231.225 1042.33 228.274 1042.37 225.204V90.7086H999.825C996.798 90.8236 993.843 89.7611 991.582 87.744C989.391 85.6577 988.211 82.7248 988.346 79.7022C988.249 76.7561 989.429 73.9117 991.582 71.899C993.843 69.8819 996.798 68.8194 999.825 68.9344H1109.34C1112.38 68.8247 1115.34 69.8859 1117.62 71.899Z" fill="var(--text-color)"/>
<path fill-rule="evenodd" clip-rule="evenodd" d="M1170.08 232.394C1162.32 228 1155.87 221.627 1151.38 213.925C1150.05 212.021 1149.29 209.773 1149.2 207.451C1149.2 204.445 1150.52 201.591 1152.81 199.648C1154.76 197.606 1157.42 196.387 1160.24 196.24C1164.52 196.64 1168.43 198.815 1171.03 202.237C1176.36 211.001 1185.92 216.291 1196.17 216.14C1204.49 216.334 1212.54 213.136 1218.45 207.281C1224.42 201.619 1227.74 193.702 1227.58 185.472V80.418C1227.54 77.3145 1228.85 74.3461 1231.16 72.2739C1233.39 70.0748 1236.4 68.8496 1239.54 68.8664C1242.7 68.7119 1245.79 69.8851 1248.05 72.1036C1250.22 74.2913 1251.39 77.2732 1251.29 80.3498V185.643C1251.38 195.08 1248.89 204.364 1244.1 212.494C1239.35 220.596 1232.53 227.288 1224.34 231.883C1215.76 236.746 1206.04 239.239 1196.17 239.107C1187.04 239.204 1178.04 236.888 1170.08 232.394ZM1334.82 234.166C1325.32 230.561 1316.61 225.158 1309.17 218.253C1306.09 215.896 1304.25 212.276 1304.16 208.405C1304.19 205.461 1305.42 202.657 1307.56 200.636C1309.6 198.44 1312.47 197.203 1315.47 197.228C1317.99 197.194 1320.43 198.133 1322.28 199.852C1328.03 205.347 1334.73 209.767 1342.04 212.903C1349.39 215.828 1357.25 217.264 1365.17 217.128C1374.18 217.414 1383.07 214.98 1390.68 210.143C1397.01 206.583 1400.98 199.928 1401.11 192.662C1401.22 184.856 1397.28 177.551 1390.68 173.376C1381.11 167.755 1370.61 163.9 1359.68 161.994C1343.2 158.587 1330.56 153.101 1321.67 145.434C1312.78 137.767 1308.38 127.135 1308.38 113.573C1308.19 104.667 1310.82 95.9272 1315.88 88.596C1321.02 81.3188 1328.1 75.629 1336.31 72.1717C1345.71 68.2077 1355.82 66.2464 1366.02 66.413C1375.57 66.3522 1385.06 67.9787 1394.05 71.2176C1401.98 73.8927 1409.25 78.2254 1415.38 83.9277C1418.65 86.3412 1420.67 90.0899 1420.9 94.1503C1420.9 97.0381 1419.73 99.8032 1417.66 101.817C1415.68 104.034 1412.83 105.278 1409.86 105.225C1407.85 105.302 1405.89 104.607 1404.38 103.283C1399.41 98.6195 1393.53 95.0347 1387.1 92.7532C1380.45 90.0713 1373.36 88.6611 1366.19 88.596C1357.21 88.1341 1348.3 90.4416 1340.67 95.2067C1334.75 99.1327 1331.19 105.767 1331.19 112.875C1331.19 119.982 1334.75 126.617 1340.67 130.543C1349.4 135.633 1358.93 139.204 1368.85 141.106C1379.38 143.18 1389.66 146.391 1399.5 150.681C1406.93 153.967 1413.28 159.282 1417.83 166.015C1422.44 173.755 1424.67 182.676 1424.27 191.674C1424.4 200.519 1421.68 209.172 1416.5 216.345C1411.06 223.741 1403.73 229.542 1395.28 233.144C1385.99 237.209 1375.95 239.253 1365.81 239.141C1355.27 239.337 1344.77 237.653 1334.82 234.166Z" fill="var(--text-color)"/>
<path fill-rule="evenodd" clip-rule="evenodd" d="M99.5349 234.711C99.2922 234.282 99.0761 233.838 98.8877 233.382C97.5811 230.358 97.1788 227.021 97.7295 223.773H20.4372L135.303 21.5697L173.012 87.8803L183.947 68.5255L151.074 10.5974C150.155 8.92774 144.602 0 135.03 0C130.704 0 124.504 1.87414 119.463 10.7337L3.09835 215.39C2.11048 217.162 -2.69261 226.465 2.07641 234.711C4.25654 238.459 8.88931 242.923 19.1087 242.923H116.567C106.416 242.923 101.715 238.527 99.5349 234.711Z" fill="var(--text-color)"/>
<path fill-rule="evenodd" clip-rule="evenodd" d="M323.611 215.39L227.992 46.8878C227.005 45.1159 221.486 36.1541 211.88 36.1541C207.554 36.1541 201.354 37.9941 196.312 46.8537L183.947 68.5256L194.95 87.8804L211.982 57.7238L306.579 223.773H270.607C271.067 226.518 270.809 229.335 269.858 231.951C269.657 232.528 269.407 233.087 269.108 233.621L268.802 234.234C263.965 242.48 253.507 242.923 251.463 242.923H307.737C309.815 242.923 320.239 242.48 325.076 234.234C327.222 230.486 328.755 224.182 323.611 215.39Z" fill="var(--text-color)"/>
<path fill-rule="evenodd" clip-rule="evenodd" d="M268.802 234.234L269.108 233.621C269.407 233.087 269.657 232.529 269.858 231.951C270.809 229.335 271.067 226.518 270.607 223.773C270.077 220.812 269.015 217.972 267.473 215.39L195.018 87.8804L183.947 68.5256L172.944 87.8804L100.523 215.39C99.117 218.003 98.172 220.839 97.7298 223.773C97.147 227.011 97.5137 230.348 98.7858 233.382C98.9742 233.838 99.1903 234.282 99.433 234.711C101.613 238.459 106.246 242.923 116.465 242.923H251.361C253.507 242.923 263.965 242.48 268.802 234.234ZM183.947 107.235L250.168 223.773H117.76L183.947 107.235Z" fill="var(--text-color)"/>
</svg>
