<svg viewBox="0 0 102 77" fill="none" xmlns="http://www.w3.org/2000/svg">
<path d="M0 73.7564V1.19872C0 0.705129 0.21125 0.423076 0.704167 0.423076C1.90125 0.423076 3.02792 0.423077 4.6475 0.352564C6.3375 0.282051 8.09791 0.282051 9.99916 0.211538C11.9004 0.141025 13.9425 0.141025 16.1254 0.0705117C18.3083 -1.07699e-06 20.4208 0 22.5333 0C28.3075 0 33.0958 0.705127 37.0392 2.1859C40.56 3.38461 43.7992 5.35898 46.475 7.96795C48.7283 10.2244 50.4888 12.9744 51.6154 16.0064C52.6717 18.9679 53.235 22 53.235 25.1731C53.235 31.2372 51.8267 36.2436 49.01 40.1923C46.1933 44.141 42.25 47.1026 37.6729 48.7949C32.8846 50.5577 27.6033 51.1923 21.8292 51.1923C20.1392 51.1923 19.0125 51.1923 18.3083 51.1218C17.6042 51.0513 16.6183 51.0513 15.2804 51.0513V73.6859C15.3508 74.1795 14.9987 74.6026 14.5058 74.6731C14.4354 74.6731 14.365 74.6731 14.2242 74.6731H0.845001C0.281667 74.6731 0 74.391 0 73.7564ZM15.3508 14.0321V37.7244C16.3367 37.7949 17.2521 37.8654 18.0971 37.8654H21.8292C24.5754 37.8654 27.3217 37.4423 29.9271 36.5962C32.1804 35.9615 34.1521 34.6218 35.7012 32.859C37.18 31.0962 37.8842 28.6987 37.8842 25.5962C37.9546 23.4103 37.3912 21.2244 36.2646 19.3205C35.0675 17.4872 33.3775 16.0769 31.3354 15.3013C28.73 14.2436 25.9133 13.8205 23.0262 13.891C21.1954 13.891 19.5758 13.891 18.2379 13.9615C16.8296 13.891 15.8438 13.9615 15.3508 14.0321Z" fill="var(--text-color)"/>
<path d="M97.175 33.4231C95.0625 32.2949 92.8092 31.5192 90.415 31.0256C87.8096 30.4615 85.2042 30.109 82.5283 30.109C81.12 30.0385 79.6412 30.25 78.3033 30.6026C77.3879 30.8141 76.6133 31.3077 76.1204 32.0128C75.7683 32.5769 75.5571 33.2821 75.5571 33.9167C75.5571 34.5513 75.8388 35.1859 76.2613 35.75C76.895 36.5256 77.74 37.1603 78.6554 37.6538C80.275 38.5 81.965 39.2756 83.655 39.9808C87.4575 41.25 91.1192 43.0128 94.4992 45.1282C96.8229 46.609 98.7242 48.5833 100.062 50.9808C101.189 53.2372 101.752 55.7051 101.682 58.2436C101.752 61.5577 100.766 64.8718 98.9354 67.6218C96.9637 70.4423 94.2175 72.6282 91.0488 73.8974C87.5983 75.3782 83.3733 76.1539 78.3033 76.1539C75.0642 76.1539 71.8954 75.8718 68.7267 75.2372C66.2621 74.8141 63.7975 74.0385 61.5442 72.9808C61.0513 72.6987 60.6992 72.2051 60.7696 71.641V59.3718C60.7696 59.1603 60.84 58.8782 61.0513 58.7372C61.2625 58.5962 61.4738 58.6667 61.685 58.8077C64.4313 60.4295 67.3183 61.5577 70.4167 62.2628C73.0925 62.968 75.9092 63.3205 78.7258 63.3205C81.4017 63.3205 83.3029 62.9679 84.5704 62.3333C85.6971 61.8397 86.4717 60.641 86.4717 59.3718C86.4717 58.3846 85.9083 57.468 84.7817 56.5513C83.655 55.6346 81.3313 54.5769 77.8808 53.2372C74.2896 51.968 70.98 50.2756 67.8817 48.1603C65.6988 46.609 63.8679 44.5641 62.53 42.1667C61.4033 39.9103 60.84 37.4423 60.9104 34.9744C60.9104 31.9423 61.7554 29.0513 63.3046 26.4423C65.065 23.6218 67.6704 21.3654 70.6983 19.9551C74.0079 18.2628 78.1625 17.4872 83.1621 17.4872C86.0492 17.4872 89.0067 17.6987 91.8937 18.1218C94.0062 18.4038 96.0483 18.9679 97.9496 19.7436C98.2313 19.8141 98.5129 20.0962 98.6538 20.3782C98.7242 20.6603 98.7946 20.9423 98.7946 21.2244V32.718C98.7946 33 98.6537 33.2821 98.4425 33.4231C97.8087 33.5641 97.4567 33.5641 97.175 33.4231Z" fill="var(--text-color)"/>
</svg>
