<svg viewBox="0 0 1156 298" fill="none" xmlns="http://www.w3.org/2000/svg">
<path fill-rule="evenodd" clip-rule="evenodd" d="M271.927 161.057L293.855 183.024C295.588 184.766 296.571 187.135 296.571 189.595V201.953C296.571 235.064 293.128 247.075 286.664 259.186C280.351 271.144 270.588 280.929 258.643 287.269C246.556 293.733 234.569 297.184 201.52 297.184H143.489C142.739 297.18 142.066 296.726 141.781 296.033C141.496 295.34 141.655 294.544 142.184 294.014V294.022L164.104 272.055C165.838 270.313 168.199 269.331 170.659 269.331H197.483C222.267 269.331 231.25 266.747 240.315 261.885C249.274 257.131 256.598 249.794 261.334 240.826C266.1 231.897 268.678 223.039 268.763 199.128L268.765 162.37C268.769 161.623 269.22 160.95 269.91 160.664C270.6 160.378 271.395 160.532 271.927 161.057ZM3.16204 142.475L25.0981 164.442C26.8319 166.183 27.8144 168.553 27.8144 171.013V197.891C27.8144 222.731 30.3902 231.737 35.2447 240.818C39.9792 249.785 47.2996 257.122 56.2562 261.877C65.3212 266.739 74.312 269.323 99.0964 269.323H134.548C135.3 269.32 135.98 269.771 136.269 270.466C136.558 271.16 136.4 271.96 135.868 272.493L113.932 294.46C112.199 296.201 109.837 297.184 107.385 297.184H95.051C62.0023 297.184 50.0229 293.733 37.9362 287.261C25.9881 280.922 16.2223 271.137 9.90716 259.177C3.53252 247.235 0.0962145 235.39 0.0019912 203.312L0 143.787C0.00394342 143.04 0.455219 142.368 1.14534 142.082C1.83545 141.795 2.63006 141.95 3.16204 142.475ZM436.906 82.7641C445.55 82.7641 453.327 84.3672 460.237 87.5702C467.148 90.7649 473.034 95.1648 477.905 100.737C482.872 106.498 486.633 113.195 488.968 120.434C491.486 127.987 492.741 136.118 492.741 144.811C492.809 153.106 491.455 161.351 488.737 169.188C486.265 176.392 482.472 183.072 477.55 188.885C472.777 194.451 466.876 198.939 460.237 202.052C453.307 205.293 445.737 206.935 438.087 206.856C432.745 206.856 428.039 206.279 423.952 205.131C420.173 204.106 416.534 202.617 413.12 200.698C410.24 199.083 407.553 197.144 405.112 194.92C403.111 193.091 401.294 191.069 399.688 188.885C399.299 188.885 398.983 189.198 398.978 189.587V249.222C398.978 255.194 394.136 260.036 388.163 260.036H381.533C375.56 260.036 370.718 255.194 370.718 249.222V96.5352C370.718 90.5668 375.556 85.721 381.533 85.721H388.699C393.595 85.721 397.566 89.6835 397.566 94.587V102.974C397.566 103.238 397.781 103.445 398.037 103.445C402.124 96.2215 407.614 90.9795 414.532 87.6857C421.526 84.3864 429.173 82.7048 436.906 82.7641ZM225.594 114.614L247.522 136.605C249.256 138.347 250.23 140.708 250.23 143.177V213.626C250.23 234.14 233.636 250.774 213.161 250.774H189.689C188.948 250.77 188.28 250.326 187.989 249.645C187.699 248.963 187.841 248.174 188.352 247.637V247.628L216.917 217.671C218.899 215.689 220.335 213.378 221.235 210.901C222.024 208.803 222.427 206.58 222.424 204.339V115.926C222.425 115.176 222.877 114.499 223.571 114.212C224.265 113.925 225.063 114.083 225.594 114.614ZM49.478 188.745H49.4698L79.3729 217.373C81.3461 219.355 83.666 220.791 86.1263 221.691C88.1573 222.467 90.3699 222.888 92.6815 222.888H180.905C181.654 222.892 182.328 223.346 182.613 224.038C182.898 224.731 182.739 225.528 182.209 226.058L160.265 248.033C158.531 249.766 156.17 250.749 153.718 250.749H83.4101C73.5677 250.738 64.1328 246.818 57.181 239.851C50.2292 232.885 46.3298 223.442 46.3407 213.601V190.082C46.3444 189.341 46.7881 188.673 47.4698 188.382C48.1516 188.092 48.9408 188.234 49.478 188.745ZM1119.87 82.7646C1127.11 82.7646 1134.36 84.2021 1141.67 87.0748C1144.45 88.1728 1147.74 90.1292 1151.52 92.9442C1154.01 94.7957 1155.58 97.6262 1155.84 100.717C1156.1 103.807 1155.02 106.86 1152.87 109.099L1148.5 113.665C1144.65 117.681 1138.39 118.13 1134.02 114.705C1133.04 113.925 1132.02 113.208 1130.95 112.558C1127.62 110.503 1123.79 109.395 1119.87 109.355C1114.7 109.355 1110.06 110.346 1105.98 112.311C1101.99 114.207 1098.42 116.885 1095.49 120.186C1092.57 123.493 1090.33 127.341 1088.9 131.512C1087.4 135.784 1086.65 140.278 1086.66 144.803C1086.66 149.409 1087.4 153.834 1088.9 158.102C1090.38 162.37 1092.59 166.15 1095.5 169.428C1098.43 172.731 1101.99 175.412 1105.98 177.311C1110.06 179.276 1114.7 180.267 1119.87 180.267C1124.27 180.267 1128.36 179.317 1132.12 177.435C1132.89 177.047 1133.72 176.527 1134.6 175.875C1139.1 172.562 1145.39 173.224 1149.1 177.402L1153.39 182.223C1155.45 184.536 1156.36 187.652 1155.87 190.709C1155.38 193.766 1153.54 196.44 1150.86 197.99C1144.05 201.954 1136.59 204.667 1128.83 205.998C1125.37 206.567 1122.39 206.858 1119.87 206.858C1111.66 206.904 1103.51 205.4 1095.85 202.423C1088.54 199.619 1081.88 195.345 1076.29 189.867C1070.68 184.275 1066.23 177.621 1063.22 170.295C1060 162.659 1058.39 154.164 1058.39 144.811C1058.39 135.458 1060 126.964 1063.22 119.328C1066.23 112.001 1070.68 105.347 1076.29 99.7547C1081.88 94.2769 1088.54 90.0036 1095.85 87.1987C1103.51 84.2219 1111.66 82.7179 1119.87 82.7646ZM721.497 82.7657C729.035 82.7657 736.499 84.1195 743.879 86.8272C746.554 87.8095 749.535 89.6257 752.829 92.2756C755.265 94.2384 756.733 97.1601 756.851 100.286C756.97 103.413 755.729 106.437 753.448 108.579L749.931 111.89C746.129 115.466 740.315 115.817 736.111 112.723C730.373 108.513 725.262 106.4 720.796 106.4C717.023 106.4 713.332 107.391 709.716 109.355C706.108 111.328 704.3 114.523 704.3 118.956C704.3 122.572 705.786 125.197 708.775 126.84C711.764 128.474 715.528 129.878 720.086 131.025C724.643 132.172 729.547 133.361 734.806 134.591C740.073 135.829 744.977 137.712 749.535 140.254C754.092 142.797 757.857 146.28 760.845 150.722C763.826 155.155 765.32 161.222 765.32 168.941C765.32 175.999 763.867 181.943 760.961 186.788C758.162 191.521 754.287 195.529 749.65 198.486C744.841 201.511 739.541 203.676 733.989 204.883C728.268 206.188 722.42 206.849 716.552 206.856C707.76 206.856 699.669 205.536 692.28 202.919C689.39 201.887 685.923 199.823 681.877 196.719C679.388 194.811 677.851 191.917 677.662 188.787C677.474 185.657 678.653 182.6 680.895 180.407L683.826 177.534C687.871 173.567 694.293 173.394 698.546 177.138C700.263 178.649 701.749 179.813 703.004 180.63C707.165 183.346 712.234 184.7 718.195 184.7C720.243 184.7 722.364 184.452 724.56 183.957C726.765 183.461 728.804 182.644 730.686 181.497C732.569 180.341 734.104 178.913 735.285 177.188C736.457 175.462 737.052 173.456 737.052 171.161C737.052 167.05 735.557 164.012 732.569 162.048C729.588 160.075 725.815 158.473 721.258 157.243C716.389 155.94 711.48 154.792 706.538 153.801C701.411 152.779 696.455 151.036 691.817 148.625C687.291 146.271 683.409 142.848 680.507 138.653C677.526 134.385 676.032 128.474 676.032 120.929C676.032 114.366 677.328 108.662 679.912 103.816C682.386 99.1147 685.891 95.0338 690.166 91.8793C694.562 88.6842 699.519 86.3432 704.779 84.978C710.23 83.5085 715.852 82.7657 721.497 82.7657ZM1017.18 85.721C1023.15 85.721 1027.99 90.5668 1027.99 96.5352V193.087C1027.99 199.059 1023.15 203.901 1017.18 203.901H1010.55C1004.57 203.901 999.732 199.059 999.732 193.087V96.5352C999.732 90.5668 1004.57 85.721 1010.55 85.721H1017.18ZM924.107 82.7657C931.645 82.7657 938.002 84.0782 943.187 86.7034C948.227 89.2051 952.561 92.9285 955.794 97.5341C959.013 102.132 961.325 107.506 962.737 113.665C964.157 119.823 964.859 126.427 964.859 133.477V193.079C964.859 199.051 960.017 203.893 954.043 203.893H947.406C941.432 203.893 936.59 199.051 936.59 193.079V136.927C936.59 133.32 936.277 129.828 935.649 126.468C935.107 123.334 933.987 120.328 932.347 117.602C930.79 115.073 928.598 112.996 925.99 111.576C923.315 110.09 919.864 109.355 915.62 109.355C911.228 109.355 907.496 110.214 904.433 111.939C901.418 113.619 898.837 115.979 896.896 118.832C894.88 121.822 893.441 125.162 892.652 128.681C891.791 132.352 891.356 136.111 891.356 139.883V193.087C891.356 199.059 886.514 203.901 880.54 203.901H873.903C867.93 203.901 863.087 199.059 863.087 193.087V133.485C863.087 126.097 861.601 120.227 858.613 115.877C855.624 111.535 850.687 109.355 843.768 109.355C839.062 109.355 835.091 110.181 831.872 111.815C828.652 113.466 825.985 115.679 823.863 118.469C821.706 121.331 820.143 124.595 819.265 128.07C818.315 131.77 817.843 135.576 817.861 139.396V193.087C817.861 195.956 816.721 198.708 814.691 200.737C812.66 202.765 809.907 203.903 807.038 203.901H800.4C794.427 203.901 789.584 199.059 789.584 193.087V96.5352C789.584 90.5668 794.431 85.721 800.4 85.721H805.626C811.595 85.721 816.441 90.5668 816.441 96.5352V104.188C819.535 98.3806 823.833 93.3007 829.048 89.2872C834.621 84.9368 842.117 82.7657 851.546 82.7657C869.296 82.7657 881.069 90.0714 886.881 104.675C890.968 97.1296 896.07 91.5904 902.196 88.0572C908.322 84.5323 915.62 82.7657 924.107 82.7657ZM584.861 82.7657C586.587 82.7657 588.279 82.9308 589.922 83.261C592.867 83.844 594.989 86.426 594.991 89.4275V105.641C594.992 107.39 594.217 109.05 592.875 110.172C591.532 111.294 589.761 111.763 588.04 111.452C585.825 111.046 583.579 110.839 581.328 110.833C574.723 110.833 569.431 112.104 565.427 114.647C561.422 117.198 558.36 120.104 556.238 123.397C554.239 126.393 552.801 129.727 551.994 133.237C551.284 136.523 550.937 138.983 550.937 140.626V193.087C550.937 199.059 546.095 203.901 540.122 203.901H533.484C527.511 203.901 522.669 199.059 522.669 193.087V96.5352C522.669 90.5668 527.507 85.721 533.484 85.721H541.575C546.743 85.721 550.937 89.9063 550.937 95.074V103.965C550.937 104.221 551.144 104.435 551.408 104.435C554.545 97.5341 559.02 92.2013 564.832 88.4287C570.644 84.6561 577.323 82.7657 584.861 82.7657ZM635.767 85.721C641.737 85.721 646.583 90.5668 646.583 96.5352V193.087C646.583 199.059 641.741 203.901 635.767 203.901H629.13C623.157 203.901 618.314 199.059 618.314 193.087V96.5352C618.314 90.5668 623.152 85.721 629.13 85.721H635.767ZM106.882 46.435C107.623 46.4386 108.291 46.8823 108.582 47.5639C108.872 48.2456 108.73 49.0348 108.219 49.5719L79.6453 79.5379C77.6639 81.5192 76.2356 83.8306 75.3357 86.3071C74.5438 88.4046 74.1383 90.628 74.1386 92.8699V181.282C74.1314 182.028 73.6789 182.697 72.9895 182.981C72.3001 183.265 71.5075 183.11 70.9766 182.586L49.0487 160.595C47.3132 158.852 46.3394 156.492 46.3408 154.032V83.5829C46.3408 63.069 62.9353 46.435 83.4101 46.435H106.882ZM431.259 109.355C426.074 109.355 421.434 110.346 417.356 112.311C413.368 114.207 409.803 116.885 406.871 120.186C403.951 123.493 401.71 127.341 400.274 131.512C398.785 135.784 398.031 140.278 398.045 144.803C398.045 149.409 398.788 153.834 400.274 158.102C401.769 162.37 403.965 166.15 406.879 169.428C409.81 172.732 413.376 175.413 417.364 177.311C421.443 179.276 426.074 180.267 431.259 180.267C436.444 180.267 441.075 179.276 445.154 177.311C449.142 175.413 452.708 172.732 455.639 169.428C458.545 166.15 460.741 162.37 462.243 158.102C463.73 153.834 464.473 149.409 464.473 144.811C464.473 140.213 463.73 135.78 462.243 131.52C460.807 127.346 458.562 123.495 455.639 120.186C452.707 116.885 449.141 114.207 445.154 112.311C441.075 110.338 436.444 109.355 431.259 109.355ZM258.643 9.92264C270.588 16.2631 280.351 26.0478 286.664 38.0065C293.038 49.9485 296.475 61.7943 296.569 93.8717L296.571 153.396C296.571 154.147 296.118 154.824 295.424 155.111C294.73 155.398 293.932 155.239 293.401 154.709V154.701L271.481 132.742C269.741 130.998 268.764 128.635 268.765 126.171V99.2924C268.765 74.4528 266.181 65.4465 261.334 56.3659C256.598 47.3979 249.274 40.0608 240.315 35.3071C231.258 30.4448 222.267 27.861 197.483 27.861H162.023C161.274 27.857 160.601 27.4032 160.315 26.7104C160.03 26.0175 160.189 25.2211 160.719 24.691L182.639 2.72418C184.372 0.982358 186.734 0 189.194 0H201.52C234.569 0 246.556 3.45063 258.643 9.92264ZM153.082 0C153.832 0.00397875 154.505 0.457729 154.79 1.15062C155.075 1.84351 154.916 2.63984 154.387 3.16996L132.467 25.1368C130.725 26.8786 128.372 27.861 125.912 27.861H99.0882C74.3037 27.861 65.313 30.4448 56.2479 35.3071C47.2883 40.0608 39.9648 47.3979 35.2282 56.3659C30.382 65.4465 27.7979 74.4528 27.7979 99.2924V134.822C27.7939 135.57 27.3426 136.242 26.6525 136.528C25.9624 136.814 25.1678 136.66 24.6358 136.135L2.72447 114.168C0.980887 112.426 0 110.062 0 107.597V95.2391C0 62.1279 3.44274 50.1167 9.90716 38.0065C16.2202 26.0478 25.9829 16.2631 37.9279 9.92264C49.8468 3.54052 61.6693 0.0964338 93.6782 0.00199574L153.082 0ZM213.161 46.435C233.636 46.435 250.23 63.069 250.23 83.5829V107.102C250.227 107.843 249.783 108.511 249.101 108.801C248.419 109.092 247.63 108.95 247.093 108.439L217.206 79.8103C215.225 77.8291 212.913 76.3927 210.445 75.4929C208.35 74.6996 206.129 74.294 203.889 74.2959H115.666C114.915 74.2953 114.239 73.8427 113.951 73.1491C113.664 72.4555 113.823 71.6572 114.353 71.126L136.306 49.1509C138.04 47.4173 140.393 46.435 142.853 46.435H213.161ZM632.209 27.861C637.394 27.861 641.753 29.545 645.287 32.9048C648.82 36.2729 650.587 40.4995 650.587 45.5847C650.587 50.6781 648.82 54.9047 645.287 58.2645C641.753 61.6326 637.394 63.3166 632.209 63.3166C627.033 63.3166 622.748 61.5501 619.371 58.0251C616.087 54.7225 614.264 50.2416 614.31 45.5847C614.31 40.8297 615.994 36.6857 619.371 33.1525C622.756 29.6276 627.033 27.861 632.209 27.861ZM1013.63 27.861C1018.81 27.861 1023.17 29.545 1026.7 32.9048C1030.24 36.2729 1032 40.4995 1032 45.5847C1032 50.6781 1030.24 54.9047 1026.7 58.2645C1023.17 61.6326 1018.81 63.3166 1013.63 63.3166C1008.44 63.3166 1004.17 61.5501 1000.79 58.0251C997.502 54.7239 995.676 50.2428 995.719 45.5847C995.719 40.8297 997.412 36.6857 1000.79 33.1525C1004.17 29.6276 1008.44 27.861 1013.63 27.861Z" fill="var(--text-color)"/>
</svg>
