<svg viewBox="0 0 482 429" fill="none" xmlns="http://www.w3.org/2000/svg">
<path d="M481.335 214.352C481.335 182.469 441.403 152.254 380.182 133.517C394.31 71.1238 388.031 21.4843 360.363 5.5918C353.986 1.86393 346.529 0.0981003 338.386 0.0981003V21.9748C342.899 21.9748 346.53 22.8577 349.571 24.5255C362.914 32.1774 368.703 61.3136 364.19 98.7885C363.11 108.01 361.344 117.722 359.186 127.63C339.956 122.922 318.96 119.292 296.885 116.937C283.64 98.7885 269.905 82.3074 256.071 67.8864C288.055 38.1616 318.077 21.8767 338.484 21.8767V0C311.504 0 276.184 19.228 240.471 52.5826C204.759 19.4242 169.438 0.392409 142.458 0.392409V22.2691C162.767 22.2691 192.887 38.4559 224.871 67.9846C211.136 82.4055 197.4 98.7885 184.351 116.937C162.178 119.292 141.182 122.922 121.952 127.729C119.696 117.918 118.028 108.402 116.851 99.279C112.239 61.8041 117.93 32.6679 131.175 24.9179C134.118 23.152 137.945 22.3672 142.458 22.3672V0.490509C134.216 0.490509 126.76 2.25634 120.285 5.98421C92.7153 21.8767 86.5343 71.4181 100.76 133.615C39.7351 152.45 0 182.567 0 214.352C0 246.236 39.9313 276.451 101.153 295.188C87.0248 357.581 93.304 407.221 120.971 423.113C127.349 426.841 134.805 428.607 143.046 428.607C170.027 428.607 205.347 409.379 241.06 376.024C276.772 409.183 312.092 428.214 339.073 428.214C347.314 428.214 354.771 426.449 361.246 422.721C388.816 406.828 394.997 357.287 380.77 295.09C441.599 276.353 481.335 246.137 481.335 214.352ZM353.594 148.919C349.963 161.574 345.45 174.621 340.348 187.669C336.326 179.821 332.107 171.972 327.496 164.124C322.983 156.276 318.175 148.624 313.368 141.168C327.3 143.229 340.741 145.779 353.594 148.919ZM308.658 253.397C301.006 266.641 293.157 279.198 285.014 290.872C270.395 292.147 255.58 292.834 240.667 292.834C225.852 292.834 211.038 292.147 196.517 290.97C188.374 279.296 180.427 266.837 172.774 253.691C165.318 240.84 158.548 227.792 152.367 214.647C158.45 201.501 165.318 188.355 172.676 175.504C180.329 162.26 188.178 149.703 196.321 138.029C210.94 136.754 225.754 136.067 240.667 136.067C255.482 136.067 270.297 136.754 284.817 137.931C292.961 149.605 300.908 162.064 308.56 175.21C316.017 188.061 322.787 201.109 328.968 214.254C322.787 227.4 316.017 240.546 308.658 253.397ZM340.348 240.644C345.646 253.789 350.16 266.935 353.888 279.688C341.035 282.828 327.496 285.476 313.466 287.536C318.273 279.983 323.081 272.233 327.594 264.286C332.107 256.438 336.326 248.492 340.348 240.644ZM240.864 345.318C231.739 335.901 222.615 325.404 213.589 313.926C222.419 314.318 231.445 314.613 240.569 314.613C249.792 314.613 258.916 314.416 267.844 313.926C259.014 325.404 249.89 335.901 240.864 345.318ZM167.869 287.536C153.937 285.476 140.496 282.926 127.643 279.786C131.273 267.131 135.786 254.084 140.888 241.036C144.911 248.884 149.129 256.732 153.741 264.581C158.352 272.429 163.061 280.081 167.869 287.536ZM240.373 83.3865C249.497 92.8043 258.622 103.301 267.648 114.779C258.818 114.387 249.792 114.092 240.667 114.092C231.445 114.092 222.32 114.289 213.392 114.779C222.222 103.301 231.347 92.8043 240.373 83.3865ZM167.771 141.168C162.963 148.722 158.156 156.472 153.642 164.419C149.129 172.267 144.911 180.115 140.888 187.963C135.59 174.817 131.077 161.672 127.349 148.919C140.201 145.877 153.741 143.229 167.771 141.168ZM78.9797 263.992C44.2483 249.179 21.7807 229.754 21.7807 214.352C21.7807 198.95 44.2483 179.428 78.9797 164.713C87.4173 161.083 96.6397 157.846 106.157 154.805C111.749 174.033 119.107 194.045 128.232 214.549C119.205 234.954 111.945 254.868 106.451 273.998C96.7379 270.957 87.5154 267.622 78.9797 263.992ZM131.764 404.179C118.42 396.528 112.632 367.391 117.145 329.916C118.224 320.695 119.99 310.983 122.149 301.074C141.379 305.783 162.374 309.413 184.449 311.768C197.695 329.916 211.43 346.397 225.264 360.818C193.279 390.543 163.257 406.828 142.85 406.828C138.435 406.73 134.707 405.847 131.764 404.179ZM364.484 329.426C369.095 366.901 363.405 396.037 350.16 403.787C347.216 405.553 343.39 406.338 338.877 406.338C318.568 406.338 288.448 390.151 256.463 360.622C270.199 346.201 283.934 329.818 296.983 311.669C319.156 309.315 340.152 305.685 359.382 300.878C361.639 310.787 363.405 320.302 364.484 329.426ZM402.257 263.992C393.819 267.622 384.597 270.859 375.08 273.9C369.488 254.672 362.129 234.66 353.005 214.156C362.031 193.751 369.291 173.836 374.786 154.707C384.499 157.748 393.721 161.083 402.355 164.713C437.086 179.526 459.554 198.95 459.554 214.352C459.456 229.754 436.988 249.277 402.257 263.992Z" fill="var(--text-color)"/>
<path d="M240.569 259.185C265.332 259.185 285.406 239.113 285.406 214.352C285.406 189.592 265.332 169.52 240.569 169.52C215.807 169.52 195.732 189.592 195.732 214.352C195.732 239.113 215.807 259.185 240.569 259.185Z" fill="var(--text-color)"/>
</svg>

