<svg version="1.1" id="Layer_1" xmlns="http://www.w3.org/2000/svg" x="0" y="0" viewBox="0 0 250.2 193.5" xml:space="preserve"><style>.st11{fill:#89241b}.st40{fill:#9db83b}</style><path d="M236.3 48.9c8 5.6 9.2 13.9 8.5 22.6-1.7 20.2-12.2 35.9-25.6 50.1-25.2 26.8-56.8 42.5-91.3 53.2-17.3 5.4-34.9 10.3-53.3 9.7-18.2-.6-35.5-4.7-49.4-17.3C4 148.2.5 114 16.8 90c9.6-14.2 22.7-24.6 37.4-33 29-16.5 59.2-30.4 91.6-39.1 8-2.2 16.2-3.8 24.6-4.2 3.9-.8 7.8-.2 12.1-.3-2.2 2.6-2.2 2.5-5.4 2.8-6.7.8-13.4 1.8-19.9 3.3-16.1 2.3-31 8.6-46.1 14.3-5.3 1.9-10.4 4.4-15.5 6.8C81.3 47 67.4 53.8 54.1 61.8 51 63.7 48 65.7 45.2 68 33.8 77 23 86.6 16.6 100.1c-10.8 22.7-4.8 58.3 24.4 71.7 14.6 6.7 29.8 8.8 45.7 7.2 17.7-1.8 34.5-7.2 51.2-12.9 28.8-10.1 55.1-24.3 76.4-46.6 12.2-12.8 22.4-26.8 25.2-45 .9-5.9.8-11.6-1.8-17.1-.8-2.9-4.5-3.8-4.8-7 .6-1.6 1.5-2.7 3.4-1.5z" fill="#782616"/><path d="M236.3 48.9c-1.6 0-2.6.8-3.1 2.3-7.6-1.1-13.9 3.5-20.9 4.9-1.3-.1-2.5-.3-3.4-1.4-2.7-7.5-3.7-7.8-10.7-2.9-1.4 2.2-3.1 3.9-5.7 4.2-1.4.2-2.5.7-3 2.2-.9 2.9-3.2 5.6-1.8 9-1.1 3.4-3.5 5-7 5.1-1.1-.7-.4-1.7-.4-2.7-.8.8-.3 1.8-.4 2.7-2.3 3.3-4.8 6.1-9.3 5.9-1.4-2.6 2.1-3 2.1-5.2-1.8-1.2-3.7.3-5.5.1-2.7-.2-4.8 1.9-7.5 1.9-4.6-.7-7 2.7-9.7 5.4-3.6 2.8-7 5.9-11.3 8.8 3 1.5 5-.2 7.1-.9 2.4-.9 4.4-3.1 7.4-1.8 1.1 2.4-.9 2.8-2.3 3.5-1.6.8-3.4 1.4-4.3 3.1-.6.7-1.4 1.2-2.4 1.1-3-1.3-5.3 2.8-8.3 1.1-4.3-3.2-11-2.6-16.1 1.5-1.3 1.1-2.4 2.3-4.3 2-4.9-2.4-8.8-1.5-11.6 3.3-.7 1.1-1.7 2-2.9 2.5-1.5.5-3 .5-4.6.5-5.2-.6-10.4-2.3-15.6.3-.5.5-1.1 1-1.6 1.5-2.4 3.4-5.7 5.4-9.9 5.8-4.7 1.1-9.3 2.8-13.9-.3-2.8-.5-4.7 1.6-6.9 2.5-2 .4-4.7 3.7-5.8-1 .3-2 2-2.9 3.4-4.1 4.2-3.5 8.6-4.8 14.3-2.9 5.2 1.7 10.4 1.1 14.6-3.6 4.4-5 10.5-5.5 16.6-4.4 4.7.9 8 .1 10.8-3.9 2.2-3.2 5.4-4.5 9.5-4 5.1.6 9.9-1.5 14.4-3.3 9.5-3.7 18.3-8.8 24.7-17.1 1.6-2 3.4-2.9 6-2.5 7.8 1.1 14.7-1.8 21.5-4.9 2.8-1.3 3.9-3.9 5.1-6.5 1.7-2.3 3.7-4.3 6.6-5.1 1-.3 2-.6 2.5-1.5 3.2-5.5 8.9-7.2 14.4-9.2 1.6-.4 3.4-.7 4.8 0 3.9 1.7 6.6.3 8.9-2.7 1.5-1.4 3.1-2.6 5.3-1.9 5.9.2 8.7 3.5 10.2 12.6z" fill="#90211d"/><path d="M46 110.8c-.9 1-1.8 2-2.7 3.1-.4.3-.9.6-1.3.9-6.3 1.1-11.5-1-16-5.2-2.4-3.6-3.3-7.7-5.1-11.6.3-5.8 2.6-10.8 7.4-13.9 5-3.2 9.1-7 12.5-11.8 1.3-1.9 3.1-3.4 4.9-4.9 3.1-2.2 6.3-4.3 9.5-6.3 5.6-3.3 11.6-5.8 18.1-6.6 4.3-.5 7.8-2 10.7-5.5 3.2-3.9 7.3-6.7 11.9-8.8 5.1-2.6 10.4-4.8 15.7-7 7.3-2.7 14.7-5.5 22.6-5.9 6.2-.4 10.4-5.1 16-6.5 2-.5 4.1-1.3 6.1-1.8 1-1 1.9-2.2 3.7-2.1 7.1.6 13.8-2.9 21-3.1h-10.6c13.7-1.7 27.2-.9 40.3 3.5 8.9 3 15.4 8.6 15.3 19.1-1.6.8-3.1 1.5-4.7 2.3-.7-.8-.7-1.9-.5-2.8 1-4.7-1.2-7.9-4.7-10.7-5-4-10.9-5.9-17-6.6-16.3-1.8-32.1.6-47.3 7.1-1.1.5-2.5.9-2.8 2-1.3 4.8-5.1 4.3-8.8 4.6-9.6.8-19.1 2.8-28.2 6.2-1.9.6-3.7 1.1-5.5 2-2.1 1-4.2 1.9-6.2 3.1-3.2 1.9-6.4 3.6-9.2 6.1-1.9 1.6-4.3 2.4-3.2 6.2.9 3.1-2.7 3.2-4.8 3.1-6.1-.2-11.7 1.5-17.4 3.2-3.2.9-6.1 2.5-8.9 4.2-4.2 2-7.8 4.8-11.1 8.1-1.2 1.2-2.6 2.2-3.2 3.7-1.8 4.7-5.6 7.1-9.8 9.2-2.3 1.1-3.4 3.4-4.9 5.3-1.9 2.9-1.6 6-.4 9 2.9 4.9 7.2 7.5 12.9 7.9 2 .1 4.1-.4 5.7 1.2z" fill="#7b722e"/><path d="M238.4 56.7c3.3 5.1 3.1 10.7 2.4 16.4-2.1 16.7-10.4 30.3-21.4 42.6-22.1 24.7-49.7 40.8-80.8 51.3-8.5.8-16.2 4.6-24.3 6.8-14.1 3.8-28.3 6.9-43 6-13-.8-25.3-5-36.8-11.2-7.7-4.2-12-11.7-16.9-18.5-.7-1-.9-2.5-1-3.8-.1-2.5 1.2-3.4 3.4-2.4 3.2 1.5 5.9 3.6 8.4 6.1 3.3 3.4 7.2 5.8 12.3 5.6 3 .3 6 .6 8.3-1.9.7.5 1.2 1.3 1.1 2.1-.6 3.2 1.7.3 2.2 1.1.6.6.6 1.5 1.1 2.2 5.7-10.5 11.9-20.4 22.1-27.3 6.3-4.2 13.2-7 20-10.1 10.9-5 22.8-7.2 34-11.3 16.5-6 32-13.7 47.1-22.6 12.9-7.6 25.6-15.5 37.9-24.1 7.2-5.2 15-8.1 23.9-7z" fill="#fbcb73"/><path d="M238.4 56.7c-.9 1.3-2.3 1.2-3.6 1.1-7.4-.4-13.7 2.7-19.4 6.7-13.1 9.1-26.6 17.5-40.3 25.5-11.7 6.9-23.8 13-36.4 18.1-10.6 4.3-21.7 7.2-32.5 10.9-20.2 6.8-39.3 15.5-49.1 36.4-.4.8-.7 1.5-1.2 2.2-.8 1.2-1.7 2.4-2.8 3.9-1.6-1.4-.4-3.3-1.1-4.6-1.8-3-.2-5.9.8-8.6 4.4-11.3 11.6-20.2 22.7-25.4 22.2-10.3 44.8-19.7 67.2-29.3.5-.2 1-.1 1.5 0 .7-.3 1.3-.6 2-.9 5.7-4.1 12-7.1 18.2-10.2 11.6-5.8 22.1-13.5 33.2-20.1 4.8-2.9 9.2-6.5 15.1-7.3 3-1.3 6-2.6 9-3.8 3.8-1.5 7.6-1.9 11.4-.1 2 1.6 4.6 2.7 5.3 5.5z" fill="#fcf2c4"/><path d="M41.2 156.9c-5.8.2-10.4-2-14.1-6.5-2.3-2.9-5.8-4.2-9-6.4-1.6 5.2 2 8.7 4.3 11.2 5.3 5.7 9.4 12.9 17.9 15.4 14.2 4.3 27.6 9.5 43.3 8 9.4-.9 18.3-3.8 27.5-4.9 5.7-.7 11.3-3 16.7-5.3 3.6-1.5 7.1-1.5 10.7-1.4-21 7.7-42.3 14.5-65 13.7-16.7-.5-32.5-4.4-45.4-15.6-20.5-17.9-24.1-50-8.6-73.3C26.4 81.7 35 73.5 45.1 66.7c1-.3 1.3.2 1.1 1.1-3.3 3.9-7.2 7.3-9.5 12-.3.7-1.1 1.3-1.8 1.6-7.9 2.8-11.7 8.7-13.5 16.5-2.9 4.4-5.1 8.9-2.3 14.2.6 1.1-.1 2.6-.5 3.9-4.5 14.8-.9 24.4 12.2 32.5.7.4 1.4.9 2 1.5 1.3 1.9 2.9 3.3 5.2 4.1 1.3.4 3.4.4 3.2 2.8z" fill="#f7c479"/><path d="M96.1 40.7c-4.3 2.8-8.5 5.7-11.7 9.7-2.6 3.1-5.4 4.9-9.5 5.2-7 .5-13.4 3.3-19.7 6.4-1 .6-1.8.7-1.9-.8C66.6 52.7 80.7 45.9 95 39.7c1.1-.4 1.3.1 1.1 1z" fill="#f5c576"/><path d="M156.3 18.9c-5.1 2.6-10.6 4.5-15.2 8-.9.7-2 1-3.2 1.1-9.1.7-17.9 3.2-26.6 5.8-1 .4-1.2-.1-1-.9 13.3-5.9 26.9-10.6 41-13.8 1.6-.3 3.3-.1 5-.2z" fill="#f5c476"/><path d="M110.3 33c.3.3.6.6 1 .9-5 2.3-10.1 4.5-15.1 6.8-.4-.3-.7-.7-1.1-1 4.8-2.8 9.9-5 15.2-6.7z" fill="#dba35d"/><path d="M53.4 61.1c.6.3 1.3.5 1.9.8-2.9 2.2-5.7 4.5-9.1 5.9l-1.1-1.1c2.4-2.3 5.2-4.1 8.3-5.6z" fill="#d8a85b"/><path d="M56.1 65.8c9.4-7.2 20.7-7.6 32.3-8.7-4.1-3.5-3.7-4.4 2.7-8.5 1.8 4.1 3.4 4.8 7 3.1 4-2 4.5-4.2 2-8.9 1.8-1.5 3.9-2.5 6-3.2 2.6 2 4.4 1.6 5-1.8 10.1-4.6 20.8-6.3 31.8-7 1.8-.1 4.8 1 3.5-3-.1-.4 1.2-1.5 2-1.9 20.5-9.1 41.4-13.1 63.2-5 2.2.8 4.3 1.8 5.6 4 1.9 6.5-2.4 14-9.8 16.9-2.8 1.3-6.3 1.9-8.4 3.9-4.5 4.4-10 7.3-14.7 11.4-.9.6-1.6 1.3-2.5 1.8-8.3 4-16.8 7.3-26.2 7.4h-1.5c-3.4-.4-5.2 2-6.9 4.1-8.4 10.6-19.7 15.9-32.8 17.8-5 .7-9.8 1.7-13.8 5-3.3 2.6-7.2 3.3-11.1 3.8-2.3.3-4.6.7-6.7 1.7-2.9 1.4-5.9 2.9-8.5 4.9-2 1.6-4.2 2.6-6.8 1.6-1.3-1 .9-3.6-1.8-4-2.2-.3-3.4.9-4 2.8-.3.9-.9 1.3-1.7 1.7-5.5-.3-10.7 1-16.1 2-4.6.9-9.2.7-13.4-1.6-1.8-2 1.8-2.2 1.1-4-1.4-.5-1.4 1.2-2.2 1.7-2 .7-2.3-1.2-3.3-2-1.4-3.5-1.4-6.9 1-10 1.5 1.8 3 2.4 5.1.6 2.3-2.1 1-3.8-.2-5.7 6.9-1.9 8.4-9.2 13.3-13 2.3 1.8 4.5 4 7.8 1.8 3.7-2.4 4.5-5.7 3-9.7z" fill="#c6d82e"/><path class="st11" d="M32.3 150.8c-15.6-8.2-20.3-19.9-14.5-36.3.5-1.3.8-2.4.2-3.8-2.8-6.6-2.5-7.5 3.5-12.9 2.9 3 3.1 7.2 4.8 10.7 0 1.4-.9 2.4-1.6 3.6-7.1 11.9-6.7 18.1 1.7 29 7 6.6 18.5 7.8 24.8 2.6.6-3.3 4-4.8 5.2-7.8.3-.6.6-1.2 1-1.8 1-2.1 2-4.1 4.1-5.2 1.6-1.3 2.8-3 4.5-4.2 8.1-5.3 16.9-9 25.7-12.9 2.4-2 5.3-2 8.1-2.7 1.3-.5 2.5-1.3 3.7-2.1 4.7-2.5 10-3.8 14.7-6.2 4-1.5 8-3.2 11.9-5 1.9-.9 3.8-2.2 6.1-1 2 .5 3.3-.8 4.9-1.6 1-.6 2.6-2.3 3.3.4-17 8.7-34.9 15.4-52.3 23.3-5.6 2.5-11.3 4.9-16.7 7.8-13 6.9-20.8 17.7-23.2 32.3-.3.9-.6 1.8-.8 2.7-.2.8 0 1.6-1.1 2.2-2.5-2.2-.3-5.2-1.1-7.6-1.9-2-4.3-.9-6.6-.9-3.7-.3-7.4.4-10.3-2.6z"/><path d="M58.2 134.8c-.3.3-.6.7-.9 1-.8 2.4-2.3 3.7-4.8 2.5-2.4-1.1-3.8-3.2-2.6-5.6 1.6-3.3 1.1-5.9-.9-8.6 1.7-4.6 3.6-9.1 6.3-13.2 4.5 3.7 9.3.9 14 .9 2.9-2.1 6 1.8 8.8-.4 4.2-2 6.7-6.4 11.1-8 4.7 2.3 5.2 4 3.1 9.5-6.5 3.1-13.1 6.1-19.6 9.3-2.2 1.1-4.3 2.4-6.5 3.7-2-1.8-4-3.4-6.2-5-.2-1.1.8-1.7 1.1-2.6-4.7 1.8-5.7 4-4.4 8.8.7 2.5 3 4.8 1.5 7.7z" fill="#dd212c"/><path d="M67.2 104.8c6-.1 10-4.7 15-6.9 2.4-.8 4.9-1.5 7.3-.9 4.8 1.2 8.4-.6 11.7-3.7 2.8-2.6 6.1-3.5 9.9-3.8 14-1.2 26-7 35.7-17.3 2.4-2.5 4.1-5.7 7.3-7.3h1c4.7 4 9.6.6 14.2-.1 4.8-.7 9.5-2.9 12.8-6.9.5-.9 1.3-.9 2.2-.8-.5 2.9-1.6 5.4-4.4 6.8-7.6 3.8-15.4 7.3-24.2 5.5-1.9-.4-2.8.7-3.7 1.9-9.3 11.9-22.2 17.6-36.4 21.1-1.1.3-2.4.6-3.4.3-4.4-1.2-7.5.7-9.9 4-2.8 3.9-6.1 4.8-10.8 3.8-6.5-1.4-12.7-.7-17.4 5.4-3.6 4.6-9.4 4.2-13.8 2.6-5.8-2.1-10-.6-14.3 2.5-6.2.5-12.1 0-16.8-4.7-1.2-1.2-2.9-2.2-3-4.3l3 2.1c.6.1.9.4 1.1.9 4.2 2.4 8.9 2.7 13.4 1.6 5.9-1.4 11.7-1.7 17.7-1.6 1.9-1.8 3.8-1.8 5.8-.2z" fill="#a1b439"/><path class="st11" d="M212.7 55c-13.6 8.2-27.2 16.4-40.8 24.5-8.3 4.9-16.7 9.5-25.7 13.2-1-2.7 1.6-2.2 2.7-3 1.4-1 3.7-.6 4.3-2.8-.4-1.1.2-1.8.9-2.5 1.5-1 3.2-1.7 4.9-2.5 2.9-1.7 5.9-3.3 9.1-4.5.7-.2 1.4-.1 2 .4 4.1-.4 6.4-3.5 9.1-6 .3-.4.6-.4.9 0 3-.7 5.3-2.3 7.1-4.9 1.4-2.7 4.4-3.2 6.5-5 4.2-2.7 8.7-4.8 12.8-7.6.8-.5 1.6-1 2.6-.6 1 1.4 2.4 1.1 3.6 1.3z"/><path d="M49.2 123.9c3 2.2 5.6 4.3 2 8.2-1.4 1.5-1.2 3.3.5 4.8 2.3 2 3.9.6 5.5-1 .4 4-4.7 4.4-4.9 8-2.2-1.4-4.3-3-5.9-5.1-1.1-1.8-1.7-3.8-.8-5.7 1.5-3.4-.1-5.6-2.3-7.9-4-4.2-4.1-6.1-1.1-11 .4-.1.7-.2 1.1-.3 1.7 4.3 3.3-1.4 5 0-1.2 3.4-1.7 6.8.9 10z" fill="#a42021"/><path d="M118.3 101.9c-5 2-9.9 4-14.9 6.1-1.4.4-3 2.5-4.2.6-1.3-2.1.5-3.5 2.1-4.7.7-1.1 1.5-2.1 2.2-3.2 4-5.6 5.5-5.9 11.8-2.7.9 1.2 6.4-.8 3 3.9z" fill="#eb4430"/><path d="M207.5 41.7c5.1-4.6 10-9.3 9.8-16.9 5.4 4.4 6.1 6.9 3.9 13.9-2.2 3.1-4.4 6.1-9 3.4-1.2-.8-3.1-.3-4.7-.4z" fill="#9cb63b"/><path d="M118.3 101.9c1.8-3.5-2.4-2.4-3-4 3.9-2.3 7.9-4.4 12.3-5.9 4-1.4 6.6-1.1 8.5 2.8-6 2.3-11.9 4.7-17.8 7.1z" fill="#d6212a"/><path d="M159.3 82.9l-4.8 2.1c-4 .5-6-1-5.3-5.3 2.7-3 4.7-7.2 9.9-5.8 4.4 3.2 4.4 5 .2 9z" fill="#ec4530"/><path d="M149.2 79.7c.6 2.9 2.4 4.6 5.3 5.3-.4.6-.8 1.2-1.3 1.8-3.8.2-6.6 2.9-10 4.1-2.3.8-5 1.5-6-1.1-.8-2.1 2.1-2.3 3.5-3.2 2.9-2.2 5.6-4.6 8.5-6.9z" fill="#dc212d"/><path d="M209.2 53.8c-.7.4-1.3.7-2 1.1-1 .6-1.9 1.3-3 1.6-1.7.6-3.3 2.8-5.3 1.2-2.2-1.7-3-4.2-1.7-6.9 1.1-.7 2.2-1.5 3.3-2.1 6.2-3.2 8.4-1.9 8.7 5.1z" fill="#ec4533"/><path d="M221 48c-.7-.2-1.7-.2-2.1-.7-.7-.7.1-1.5.6-2.1 1.5-1.5 2.9-3.2 4.6-4.5 1.4-1.1 3-2.3 5-1.2 2.1 1.1 2.4 3.4 3 5.4.3 1.2-.5 1.8-1.7 1.8-3.2 0-6.3.1-9.4 1.3z" fill="#e03f2e"/><path d="M194.1 62.7c-1.9 2-4.4 3-6.8 4.2-2.2-.3-2-1.7-1.4-3.2.8-2 1.6-3.9 2.4-5.8.6-.8 1.1-1.9 2-2.1 2.2-.5 4.7-1.4 6.3 1.1 1.6 2.7 0 4.6-2.5 5.8z" fill="#e4422f"/><path d="M49.2 123.9c-5.3-4.3-5.4-4.5-1-10 2.2-1.2 3.9-3.6 6.9-2.9-.7 4.8-2.6 9.2-5.9 12.9z" fill="#eb4237"/><path d="M170.1 77.8c-.6 0-1.2.1-1.8.1-2 1.3-3.7 1.5-4.7-1.2-1.2-3.4 1-4.3 3.7-4.9 2.5.5 5.6-3 7.2.2 1.6 3.4-3.5 3.4-4.4 5.8z" fill="#d4202b"/><path d="M92.3 112.9c-.5-3.4 1.6-7.9-4-9-2.9 1.5-5.8 2.7-9 1 4.2-3.5 9-1.9 13.7-1.6 1.1.1 2.2.4 3.4.6.8 2.3 1.1 5 4 6-2.5 1.8-6.1.4-8.1 3z" fill="#ac2123"/><path d="M194.1 62.7c1.6-1.7 3.5-3.8 1.2-5.9-2.4-2.2-4.9-.7-7 1 .1-2 1.2-3.1 3.1-2.9 3.1.2 4.6-1.8 5.9-4.1 1.1 6.9 1.3 7 10 4-3.9 3.7-8.7 5.5-13.2 7.9z" fill="#a72322"/><path d="M79.2 104.9c3-.3 5.9-1.5 9-1-2.6 3.5-5.3 7-10 8-1.8-2-.7-4 .1-6 .3-.4.6-.7.9-1z" fill="#ed4237"/><path d="M167.3 71.9c-1.3 1.2-3.9 1.4-2.9 4.3.8 2.3 2.2 1.9 3.9 1.7-2.5 2.5-6.1 3.1-9 5 2.6-3 2.6-6-.2-8.9 3 .2 5.1-3.1 8.2-2.1z" fill="#af2024"/><path d="M78.3 105.9c0 2 0 4-.1 6-.1 1.9-.6 4.3-2.8 1.8-1.9-2.2-4-1.7-6.2-1.9 3.8-.9 7.1-2.4 9.1-5.9z" fill="#b52224"/><path d="M100.3 109.9c-4.7.3-5.3-2.3-4-6 1.6 0 3.3-.1 4.9-.1-.4 1.5-1.8 2.7-1.6 4.4 1.3.9 2.4-.7 3.7-.3-.7 1.2-1.7 1.9-3 2z" fill="#cf2328"/><path d="M215.2 49c-.1 1.2-.6 2-1.9 1.7-1.9-.5-3.1-1.9-3-4 0-.9.4-1.7 1.5-1.4 1.9.6 3.5 1.4 3.4 3.7z" fill="#c02527"/><path d="M180.2 71.8h-.5-.5c-.7-1.5-1.9-3 .4-4.1.7-.4 1.6-1.1 2.2-.1 1.2 2-1 2.8-1.6 4.2z" fill="#c52227"/><path d="M42.2 114.1c-2 5.2-.4 9.2 4.1 12.3 1.9 1.3 2.7 2.8 1.1 4.9-1.8 2.5-1 5-.1 7.5-5.7 5.1-14.9 6.3-22 2.9-9.5-10.4-9.1-23.5.8-33.2 4.7 3.9 10 5.9 16.1 5.6z" fill="#ef7c57"/><path d="M56.1 65.8c2.8 1.5 3 4.2 1.8 6.3-1.5 2.8-3.6 5.6-7.4 5.7-2.9.1-4.7-1.1-5.1-4.1 3-3.2 6.1-6.5 10.7-7.9z" fill="#eeea71"/><path d="M100.1 42.8c4.6 1.3 3.9 4.6 2.1 7.3-1.5 2.2-4 3.8-7.1 3.9-4 .1-5.7-1.2-4-5.3 2.4-3 5.7-4.5 9-5.9z" fill="#ece96d"/><path d="M32 86.8c2.5.3 3.7 1.6 3 4-.8 2.8-3.2 4.2-5.9 4.5-3 .3-1.4-2.2-1.9-3.5 1.3-1.9 2.4-4.1 4.8-5z" fill="#e9e86e"/><path d="M111.2 37.8c2.3 2.2.4 3.7-1.2 4.5-2.5 1.3-3.4-.5-3.8-2.7 1.5-1.1 3.1-1.9 5-1.8z" fill="#e2e45e"/><path d="M32.3 150.8c4.8 1.2 9.6 1.5 14.5.4 3-.6 3.1.7 2.3 2.9-1.3 4.8-5.1 2.1-7.8 2.7-2.8-2.3-7.8-1.4-9-6z" fill="#feeab8"/><path d="M93.3 63.4c4.1.3 8.3.7 12.4 1 2.7.2 4.4-.5 4.7-3.6 1.3-12.9 8.4-19.5 21.8-19.9 6.7-.2 13.3 0 20 0 3.2 0 6-.7 7.4-4 3.2-7.4 9.6-10.6 16.8-11.8 7-1.1 14.3-1.2 21.3.7 2.6.7 5 1.8 7 3.7 2.2 2 3.4 4.2 1.9 7.1-1.4 2.7-3.8 3.6-6.7 3-4.4-.9-8.8-1.7-13.3-1.6-7.1.2-8.7 1.5-10.4 8.4-1.3 5.2-7.6 9.2-15.6 9.4-7.3.2-14.7-.1-22-.2-7.7 0-9.1 1.3-9.5 8.8-.4 8.6-7.9 15.1-18.4 15.3-6.8.1-13.6-.6-20.4-.8-3.4-.1-5.9 0-5.4 5.1.7 7-4.9 12.1-12.5 12.8-5 .5-9.9-.8-14.9-1-3.2-.1-5.8.5-7.9 3.2-2.2 2.8-4.9 4-8.3 1.8-3.3-2.2-2.8-5.6-1.9-8.6 1.8-5.8 6.5-8.6 11.9-10.3.6-.2 1.3-.3 2-.3 6.3-.6 12-.3 14.1-9.4 1.5-6.5 9.8-7.8 16.3-8.6 3.1-.4 6.3-.1 9.5-.1.1.1.1 0 .1-.1z" fill="#97732d"/><path class="st40" d="M154.2 64.9c-8.8 14.4-22.3 22.5-38.3 25.4-7.1 1.3-13.5 2.3-18.5 7.7-1.3 1.3-3.3 1.2-4.8.7-3.4-1.1-6.9-.7-10.4-.8 10-1.7 18.6-7.9 28.3-10.1 10.7-2.4 21.2-4.7 29.9-12 3-2.5 4.9-5.8 7.6-8.4 1.9-1.7 3.7-3 6.2-2.5zM182.2 57.8c-2.7 7.6-10 7.1-15.8 8.9-1.7.5-3.5.3-5.3 1.1-3.1 1.4-5.1.3-5.9-3 8.6 0 16.5-2.7 24.1-6.4.9-.4 2-.4 2.9-.6z"/><path d="M67.2 104.8c-2 0-4 0-6 .1-1.5-2.3-.5-3.8 1.6-4.7 1.8-.7 4-1 5.6.6 1.8 1.8-.2 2.8-1.2 4z" fill="#e8e864"/><path d="M30.2 104.9c-.4-.3-.7-.6-1.1-.9.3-1.4-.8-3.7 1.8-3.9 1.3-.1 2.9.6 3 2.1.3 2.6-1.8 2.6-3.7 2.7z" fill="#e7e75c"/><path d="M25.4 141.8c7.7 2 14.9-.1 22-2.9 1.7 1.6 4.7 2 5 5.1-.2 1.4-1 2.3-2.3 3-7 3.2-19.1.7-24.7-5.2z" fill="#d65032"/><path d="M58.2 134.8c.1-3.1-2.3-5.4-3-8.3-1.2-4.9.6-8.5 5.4-9.9 1.1-.3 2.4-1.3 3.1 0 .7 1.3-.7 2-1.6 2.7-.6.5-1.3 1-2 1.5-.9 3.4.1 6.4 2.1 9.1-2.3.8-2.9 3.1-4 4.9z" fill="#aa2022"/><path d="M62.3 129.9c-4.2-2.8-4.9-5.6-2.1-9.1 3.3.1 5.4 1.8 6.1 5-1.4 1.4-2.7 2.7-4 4.1z" fill="#eb4434"/><path d="M23.3 105c-.1 1.8-.3 3.6-2.5 3.6-1.6 0-2.2-1.5-2.2-2.8.1-1.6.7-3.5 2.6-3.6 1.8 0 2 1.5 2.1 2.8z" fill="#c42427"/><path d="M24.1 127.9c-2.8-5.6-1.1-11.7 3.3-14.1 1.8-1 3.6-1.2 5 .3 1.6 1.7.2 3.1-1.1 4.2-2.8 2.6-5.2 5.5-7.2 9.6z" fill="#faceae"/><path d="M125.2 58.9c1.5 4.9 1.8 9.5-2.7 13.1-6.8 4-14.2 2.4-21.4 1.8-6.5-.6-12.9-.6-19.2 1.6-1.3.4-2.8.6-1.6 2.6 3.3 6.4 2.5 10.2-2.9 14.1-3.8 1.3-7.7 2-11.6 1-5.2-1.3-10.3-1.2-15.5-.1-1.7 1-2.1 2.9-2.9 4.5-.8 1.7-2.1 2.1-3.7 1.7-1.7-.4-2.2-1.7-2.3-3.4-.2-4.2 3.7-8.9 9.3-10.5 5.7-1.6 11.5-1.8 17.3-.8 1 .2 1.9.7 2.8 0-4.7-7-2.9-12.5 5.2-15.9 6.5-2.8 13.3-2.8 20.1-2.3 3.6.3 7.3.5 11 .6 3.8.1 5.8-1.8 6-5.7.7-10.7 6.3-16.5 17.1-17.3 6.8-.5 13.6-.1 20.5-.1 5.2 0 9.4-1.3 11.6-6.7 1.4-3.3 4.2-5.5 7.5-7 9.8-4.3 19.8-4 29.7-.6 2.3.8 5.3 1.8 4.7 5.4-1.4 2.1-3.3 1.6-5.3 1.1-4.8-1.1-9.7-1.5-14.6-1.6-4.4-.1-8.3 1.4-12 3.7 0 2.7 2.7 5 1 7.9-2.7 3.6-6.6 5.1-10.9 5.2-6.1.2-12.3.4-18.5-.5-6-.8-11.9-1.1-17.2 2.9-2.1 1.6-2.7 3-1.5 5.3z" fill="#fef4cd"/><path d="M125.2 58.9c-2.3-2-1.8-3.7.2-5.8 5.7-5.7 12.7-4.2 19.6-3.8 9.6.5 19.5 2.9 28.3-3.4-1.9 5.2-6.8 5.8-11.1 6.9-6.4 1.7-12.8.1-19.2-.1-5.1-.1-10.2-1-14.6 3-1.1 1.1-4.3-.3-3.2 3.2z" fill="#f0cd99"/><path d="M80.2 77.8c-2.4-4 1.7-4.3 3.3-4.7 5.4-1.6 11.1-1.8 16.7-1 7.4 1.1 14.8 1.2 22.2-.2-3.3 4.4-8.2 4.5-12.9 4.9-7.1.6-14.2-1.6-21.3-.3-2.6.6-5.5-.5-8 1.3z" fill="#f5d0a0"/><path d="M172.4 38c4-5.9 10.1-5.4 16-4.8 3.7.3 7.4 1.4 11.1 2.3 1.8.5 3.3.2 4.7-.7-.5 3.2-2.8 2.2-4.6 1.9-8-1.4-15.9-2.6-23.5 1.6-1.4.8-2.5-.5-3.7-.3z" fill="#f0d19d"/><path d="M50.2 92.8c4.1-1.9 7.8-3.6 12.9-1.5 4.1 1.7 9.4.5 14.2.6-1.5 2.2-4.1 2.5-6.1 2.4-7-.3-14-.1-21-1.5z" fill="#edcd99"/></svg>