<svg version="1.1" id="Layer_1" xmlns="http://www.w3.org/2000/svg" x="0" y="0" viewBox="0 0 250.2 193.5" xml:space="preserve"><style>.st54{fill:#f9a14e}.st57{fill:#f26b68}.st58{fill:#b23f25}.st59{fill:#ffddad}.st60{fill:#ee2a28}.st63{fill:#ffddac}.st65{fill:#feddac}.st68{fill:#ee3438}.st69{fill:#f7ba2d}.st71{fill:#f7ba2e}</style><path d="M220.2 93.5c-.4-1.9-1.7-3.2-2.9-4.6-.6-.7-1-1.4-1-2.3 0-3.5-.2-6.9-.5-10.4-.8-10.2-3.8-19.7-9.5-28.3-3.3-5-7.2-9.6-11.7-13.7-2.9-2.7-5.9-5.3-9.1-7.5-6.3-4.3-13.1-7.7-20.3-10.2-10.8-3.7-21.8-6.2-33.2-6.2h-14.8c-3 .3-5.9.3-8.9.7-10.7 1.6-21 4.4-30.9 9-11 5.1-20.3 12.6-28.1 21.9-5.2 6.3-9.1 13.3-11.5 21.1-2.2 7.4-2.6 15-2.8 22.6 0 1.3-.1 2.5-1.2 3.5-.3.2-.4.6-.4.9-.8.9-1.1 1.7-1.3 2.2-.1.1-.2.1-.3.2-.2.4-.2.8 0 1.2.1.2.3.4 0 .5-1.3.3-1.3 1.6-2 2.3-.8 2.6-1 5.1-.4 7.8.3 1.1.2 2-.2 3.1-.5 1.1-.6 2.4-.5 3.6-.3 1.4-.1 2.7 0 4-.2 1.8.3 3.5 1.1 5 .3.5.7 1.1.4 1.7-.9 2.3-.6 4.6-.5 7 .3 5.6.9 11.1 2.4 16.5.3 1 .7 2.1.8 3.2.3 3.7.4 7.4 1.3 11.1.7 2.9 1.4 5.8 3 8.4.8 1.4 1 1.4 1.7 3.1.2.6.5 1 .8 1.5 4.1 5.4 9.1 9.4 15.9 10.5.5.1 1 .1 1.6.1 2.2-.1 4.4-.2 6.6-.2h45.1c8.7 0 17.4.4 26.2.3 7.1-.1 14.2 0 21.3 0h36.7c.9 0 1.8 0 2.7-.2 1.8-.4 3.6-.8 5.3-1.6 6.5-3.1 10.8-8.1 13.6-14.6 2.4-5.5 3.4-11.3 3.4-17.3 0-1.4-.2-2.9.2-4.3 1.8-6.8 2.3-13.8 2.6-20.8 0-.9-.2-1.5-1.2-1.6-1-.1-1.1-.6-.9-1.4 1.4-6 2.5-12 3-18.1v-3.8" fill="#63230e"/><path class="st54" d="M209.4 86.9c-.1-1.1.1-2.3-.2-3.4-.8.6-.5 1.5-.5 2.3 0 1-.4 1.4-1.4 1.4h-3.8c-1.4 0-1.5-.1-1.5-1.5 0-5.3-.7-10.6-1.8-15.8-2-9.2-5.7-17.6-11.9-24.8-.5-.6-.7-1.5-1.6-1.7l-1.7-1.9c-1.1-1.8-3.1-2.8-4.8-4.1-11-8.2-23.2-13.9-36.7-16.8-10.9-2.4-21.9-3.3-33-2.3-.9.4-1.8.2-2.7.3-2.1.2-4.1.8-6.1.9-9.7 2.1-19 5.3-27.6 10.5-5.3 3.1-10 6.9-14.2 11.3-.7 1-1.1 2.1-1.3 3.4-.6 5 1.2 9.1 4.5 12.7 4.3 4.6 9.6 7.7 15.3 10.3C85 70.9 92 73 99 74.9c11.5 3.2 23.2 5.9 35 8 .6.1 1.1.3 1.7.3l-.4.5 5.3 1.4 1.2-.8c3.7.6 7.3 1.2 11 1.7 4.7.6 9.4 1.4 14.2 1.6 2.2.1 4.4.1 6.5.3.9 0 1.8.1 2.6.1 8.1 0 16.2-.1 24.3-.1h7.8c.9.1 1.3-.1 1.2-1z"/><path d="M130.2 91.6c7.1 0 14.3-.1 21.4-.1l56.3-.3c1.1 0 2 .3 2.9 1 3.4 2.9 5.2 6.5 4.2 11-.7 3.4-3.9 5.9-7.4 5.9-4.6 0-9.1-1.2-12.9-3.7-4.3-2.8-8.9-4.2-13.9-4.9-1.3-.2-2.7-.3-4.4-.2 1 .4 1.7.7 2.4 1 1.5.7 3 1.4 4.3 2.6.8.7.7 1.2-.1 1.9-3.2 2.6-6.8 4.1-10.9 4.5-6.2.6-12-.8-17.5-3.6-3.2-1.7-6.4-3.4-9.5-5.3-4.7-3-10-3.6-15.5-3.5 2 .7 3.9 1.4 5.7 2.5.8.5 1.9.8 2.2 1.6.3.9-1.1 1-1.7 1.7-.7.9-1.5 1.7-2.1 2.7-3.6 5.7-9.1 7.3-15.3 4.5-2-.9-3.7-2.4-5.6-3.5-3.3-1.9-6.8-3.5-10.3-5-1.2-.5-1.2-.7-.2-1.5 1.3-1.2 3-1.7 5-2.4-7.2-.5-13.4 1.3-18.9 5.3-1.6 1.1-3 2.4-4.3 3.8-3.6 3.7-7.2 4.2-11.6 1.5-1.6-1-3.1-2.2-4.6-3.3-4.5-3.3-12-5.1-17.3-4.1.7.4 1.4.5 2.1.6 2.2.6 4.3 1.1 6.2 2.4.9.6.9 1.1-.1 1.6-5.9 3.1-12 3.5-18.2 1.1-4.1-1.6-5.5-5.6-3.7-10.1.5-1.2 1.1-2.3 1.9-3.3 1.6-1.9 3.3-2.9 6.1-2.9 27.1.2 54.1.3 81.2.4.3 0 .6 0 .9.1" fill="#8bc640"/><path class="st57" d="M179.6 131c.1-.1.3-.1.4 0 3.6.5 7.2.3 10.8.6 1.9.1 1.9.1 1.6 1.9-1.9 13.4-9.1 23-21.5 28.4-8.4 3.6-17.1 3.6-25.7.5-.4-.1-.8-.4-1.3-.3-.9-.3-1.3-.5-1.9-.9-4.7-2.6-8.9-5.8-12.2-10-3.6-4.7-5.9-9.9-7-15.7-.2-1 .1-1.4 1-1.7 5.1-1.8 10.3-2.7 15.7-3 9.4-.6 18.9-.1 28.3.1 2.5.1 5.1.1 7.6.1"/><path class="st57" d="M177.2 134.9c-.2.1-.4.1-.6.1-1.2-.1-1.9.7-2.6 1.4-.1.2-.2.3-.3.5-.8.7-1.6 1.1-2.5.4-.9-.7-.9-1.7-.3-2.6.1-.2.2-.4.2-.6-.2-1.2.1-1.6 1.3-1 .7.3.9-.4 1.3-.7-2.9-.1-5.8-.2-8.6 0-2.1.2-3.4 1.6-4.3 3.5-.3.7-.4 1.4-.4 2.2-.1 4.6.1 9.1 0 13.7 0 2.9 1.6 4.9 4.2 5.6 1.2.3 2.3.3 3.5-.2 4.3-1.5 7.8-4.1 10.9-7.3 2.7-2.8 4.7-6.1 6.2-9.7 1.5-3.8-.7-7.4-4.8-7.8"/><path class="st58" d="M82.2 133c.3.2.5.2.8.3 1.5.4 2.5 1.6 3.6 2.5 5.4 4.5 11.5 5.4 18.2 4.3 4.6-.8 8.8-2.7 13.1-4.3 1.3-.5 1.5-.4 1.7.9.5 2.9 1.5 5.7 2.7 8.4.7 1.6.7 1.7-1.1 1.7-17.4-.4-34.8-.2-52.2-.2H42.7c-1.3 0-2-.5-2.7-1.5-.9-1.5-1.2-3.2-1.5-4.9-.5-2.4-.7-4.7-1.1-7.1-.1-.6 0-1.3.9-.8 3 1.5 6.3 1.7 9.6 1.8 2.5.1 4.2 1.1 5.5 3.2 2 3.2 5.1 4.8 8.9 4.4 3-.3 5.7-1.5 8.3-3.1 1.6-1 3.2-1.9 4.7-3.2"/><path class="st59" d="M184.7 42.1c-2.8-3.4-6.5-5.8-10.2-8.1-10.1-6.5-21.1-10.9-32.9-13.3-5.5-1.1-11-1.8-16.7-2.1-4.7-.2-9.5-.1-14.2.1-.6.2-1.2.2-1.9 0 .2-.7.9-.2 1.1-.6 6.6-1.1 13.2-1.5 19.9-1.2 11 .5 21.8 2.4 32.3 6 9.7 3.3 18.6 8.1 26.3 15 1.6 1.2 1.8 1.5 2.9 2.7 4.4 4.3 8.3 9.1 11.3 14.5 4.4 7.9 6.2 16.4 6.6 25.3 0 1.1 0 2.1.1 3.2 0 1.1-.1 2.2 0 3.3 0 .7-.3.9-.9.9h-5.5c-1 0-1.2-.4-1.2-1.2 0-6.5-.8-12.9-2.5-19.2-2.1-8.2-5.8-15.7-11.4-22.2"/><path class="st60" d="M97.5 116.6c-2.6-.2-5.2.2-7.9.2-3.2.1-6.5.3-9.7.4-6.1.2-12.3.3-18.4.7-6.3.3-12.7 0-18.9 1.1-2.5.5-4.3 0-5.8-1.9-1.5-1.8-1.9-5.4-.8-7.5.3-.5.6-.9 1.3-.4 4 2.6 8.6 3.2 13.2 2.9 4.5-.2 8.6-1.8 12.3-4.4.8-.5 1.4-.5 2.1 0 1.8 1.3 3.6 2.7 5.5 3.9 3.2 2.1 6.6 3 10.4 1.9 2.4-.7 4.3-2.2 6-3.9 2.3-2.4 5-4.4 8.1-5.8.7-.3 1.5-.5 2.3-.2 5.1 2.1 10.3 4 14.9 7 2.4 1.5 4.7 3.1 7.4 3.9.6.2 1.3.1 2.1.9-7.9.4-15.5.5-23.1 1-.3.3-.6.5-1 .2zM188.9 119.8c-7.9-1.7-15.8-3-23.8-4.5s-16.1-2.9-24.2-4.3c-1.5-.3-3-.5-4.6-.7-.9-.1-.8-.4-.4-1 1.4-2.9 3.8-4.4 6.8-5.2.4-.1.7 0 1.1.3 4.9 3.2 10 6.1 15.6 7.8 7.5 2.3 15 2.5 22.2-1.3 2.1-1.1 4-2.6 5.6-4.3.7-.7 1.3-.7 2.2-.4 2 .9 3.6 2.4 5.7 3.3 3.8 1.7 7.6 2.9 11.8 3.1 2 .1 3.9-.2 5.7-1.2.4-.2.8-.7 1.2-.3.4.3 0 .8 0 1.2-.5 2.3-.9 4.6-1.4 6.8-.6 3.1-2.8 4.5-5.9 3.9-4.2-.8-8.4-1.6-12.7-2.3-.4-.1-.8-.1-1.2-.1M191 120c-.2.2-.5.2-.7.1"/><path class="st54" d="M184.4 175.7c-.4-.3-.9-.2-1.4-.2h-18.4c-.5 0-.9 0-1.4-.1 6-.9 11.6-3 16.6-6.4 4.6-3.1 8.8-6.8 11.7-11.7.7-1.1 1.5-1.8 2.9-1.7 2 .2 4 0 6 .1 1.1.1 1.8-.2 2.1-1.4.6.5.4 1 .3 1.6-2 9.2-6.9 16-15.9 19.4-.2.1-.3.2-.4.3-.7.3-1.4.2-2.1.1z"/><path class="st58" d="M200.8 146.6h-7.6c-1.1 0-1.2-.4-.8-1.2 1.8-3.9 3-8 3.3-12.3.1-.9.4-1.2 1.3-1.2 3.7.1 7.4.3 11.1.5 1.3.1 2.7-.1 4.1-.2.9-.1 1.2.3 1.1 1.1-.3 3.6-.8 7.1-2 10.5-.8 2.4-1.5 2.8-4 2.8H204c-1-.1-2.1-.1-3.2 0z"/><path class="st59" d="M186.5 175.7c-.6-.6.1-.6.4-.7 5-1.8 8.9-5 11.7-9.4 2.2-3.4 3.5-7.1 4-11.1.3-1.5.3-3 .4-4.5 1.9 0 3.9-.1 5.8-.1h1.1c1.5-.2 1.6-.2 1.4 1.5-.4 6.4-1.9 12.4-5.8 17.6-1.6 2.1-3.6 3.8-5.9 5.2-2 1.1-4.1 1.9-6.5 1.8-2.2-.3-4.4-.2-6.6-.3z"/><path d="M109.9 18.1c-.2.2-.5.3-.9.6h1.7c-2.1.3-4.2.5-6.3.8-.9.1-1.8.6-2.7.1 2.8-.7 5.4-1.4 8.2-1.5z" fill="#efbe87"/><path class="st63" d="M84.5 39.1c0 2.3-.6 4.5-2 6.4-.6.8-1.3 1.7-2.3 1.4-1.1-.3-1.7-1.3-1.8-2.4-.3-3 .1-5.8 1.9-8.4.6-.8 1.3-1.4 2.4-1.2 1.1.2 1.3 1.2 1.5 1.9.2.7.2 1.5.3 2.3zM102.5 62.8c0-2.1.4-4.1 1.8-5.7 1.1-1.2 2.2-1.2 3.1.2 1.3 2.1 1.1 4.4.5 6.6-.3 1.1-.7 2.2-1.7 3.1-1 .9-2 .8-2.8-.2-.8-1.2-.9-2.6-.9-4z"/><path class="st59" d="M105.5 44.6c-.2 1.7-.3 3.4-1.6 4.7-.8.8-1.6.8-2.4 0-1.9-2.1-2-4.6-1.7-7.1.1-1.1.4-2.1 1.3-2.9.9-.9 1.9-.9 2.7 0 1.5 1.4 1.4 3.4 1.7 5.3zM106.2 35c.1-1.8.3-3.6 1.6-4.9.9-.9 2-.9 2.8.1 1.9 2.3 1.9 7.5-.1 9.8-.8.9-1.7 1-2.6.1-1.5-1.4-1.6-3.3-1.7-5.1zM128.9 63.3c0 2-.4 3.8-2 5.2-1 .9-2 .9-2.9-.1-1.5-1.7-1.2-3.7-.9-5.6.1-1.2.7-2.3 1.5-3.2 1.2-1.4 2.8-1.3 3.7.4.5.8.6 1.7.6 3.3z"/><path class="st63" d="M122.3 48.2c0 1.6-.3 3.1-1.1 4.4-.8 1.3-2.2 1.3-3 .2-1.6-2.2-1.6-7 .2-9.2.8-1 1.8-1.1 2.6 0 1.1 1.3 1.3 3 1.3 4.6z"/><path d="M125.4 32.4c-.1-1.5.1-2.9.9-4.2 1-1.6 2.4-1.6 3.3 0 1.3 2.6 1.3 5.3.1 8-.3.7-.9 1.4-1.9 1.4-1-.1-1.4-.8-1.7-1.6-.6-1.2-.8-2.5-.7-3.6z" fill="#feddad"/><path class="st63" d="M166.5 46.5c-.4 2.3-1.6 4.8-4.2 6.3-1.4.8-2.6.1-2.6-1.5 0-3.1 1.5-5.5 4-7.2 1.5-1 2.9 0 2.8 2.4zM143.1 28.9c-.3 2.1-.7 4.3-2.8 5.9-1.2.9-2.4.5-2.8-1-.6-2.8.2-5.3 2-7.4.6-.7 1.3-1.1 2.3-.9 1 .3 1 1.2 1.2 2 .1.3.1.7.1 1.4zM187.6 70.1c.2 1.4-.3 2.7-1.1 4-1 1.5-2.7 1.5-3.5-.1-1.2-2.5-1-5 .5-7.4.9-1.4 2.8-1.2 3.6.3.5 1 .6 2.1.5 3.2zM150.5 46c0 1.3-.2 2.5-1 3.5-.5.7-1.2 1.2-2.1 1-.9-.2-1.5-.9-1.8-1.7-.6-1.8-.8-3.6-.1-5.4.4-1 1-1.9 2.1-2.1 1.1-.2 1.7.7 2.2 1.6.6.9.7 2 .7 3.1zM170.5 66.4c-.1-1.6.2-3 1.1-4.2 1-1.3 2.3-1.3 3.2.1 1.3 2.2 1.3 4.6.3 6.9-.4.8-.9 1.5-1.9 1.5-1 0-1.4-.7-1.9-1.4-.7-1-.9-2-.8-2.9z"/><path class="st65" d="M154.7 74.4c.1 1.3-.2 2.5-.8 3.5-.9 1.5-2.3 1.5-3.3.1-1.3-1.7-1.3-5.6-.1-7.4 1-1.5 2.8-1.3 3.5.3.5 1.2.9 2.3.7 3.5z"/><path class="st59" d="M162.3 76.5c0-1.1 0-2.4.9-3.6.9-1.2 2.2-1.2 3 .1 1.2 1.8 1.2 5.8 0 7.7-.8 1.2-1.9 1.3-2.9.1-.7-.8-1-2.1-1-4.3z"/><path class="st65" d="M161.3 64.1c.1.9-.1 2-1 2.9-.8.8-1.5.7-2.3 0-1.7-1.5-2.4-5.1-1.3-7.2.8-1.4 2-1.6 3.2-.5 1 1.2 1.4 2.4 1.4 4.8z"/><path d="M148.1 61.3c-.4 2.5-1.5 4.7-3.7 6.2-1.6 1-2.7.3-2.6-1.5.2-2.6 1.3-4.7 3.4-6.2.6-.5 1.3-.8 2.1-.4.8.3.9 1.1.8 1.9z" fill="#feddab"/><path class="st65" d="M160.2 32.4c-.3 2.3-1.4 4.4-3.7 5.8-1.3.8-2.5 0-2.6-1.5-.1-2 1.8-5.4 3.5-6.3 1.6-.8 2.8 0 2.8 2z"/><path class="st63" d="M139.2 71.9c.1 2.1-.6 3.7-2 5-1.2 1.1-2.4.8-3-.7-.7-1.8.2-5.4 1.7-6.7.6-.5 1.3-1 2.1-.6.9.4 1.2 1.1 1.2 2v1z"/><path class="st65" d="M137.6 49.3c.1 1.2 0 2.3-.4 3.3-.3.8-.7 1.5-1.6 1.5-.9 0-1.4-.6-1.7-1.3-1.1-2.5-1.1-5-.1-7.5.2-.6.6-.9 1.3-.9.8-.1 1.2.4 1.6 1 .7 1.2 1.1 2.6.9 3.9z"/><path d="M173.1 52.3c.8-1.5 1.4-3 2.7-4.2.7-.6 1.5-1.2 2.5-1.1 1.2.7 1.6 2 .8 3.2-.3.4-.4.9-.6 1.3-.7 1.3-1.5 2.5-2.7 3.4-.7.5-1.4.9-2.3.5-1.2-.6-1.3-1.5-.4-3.1z" fill="#f7dfb7"/><path class="st65" d="M175.5 39.5c.1 1.5-.4 2.9-1.2 4.3-.4.6-.9 1.2-1.8 1.1-.9-.1-1.2-.9-1.4-1.6-.5-2.3-.1-4.5 1.2-6.5.4-.6 1-.9 1.7-.8.7.2 1.1.6 1.3 1.3.2.7.2 1.4.2 2.2z"/><path class="st68" d="M146.2 157.1c-6.7-2.5-11.6-7.1-15.1-13.2-1.2-2.1-2.4-4.2-2.2-6.7.2-2.8 2.6-5.3 5.4-5.3h15.3c2.8 0 5.4 2.6 5.5 5.4.1 5 .1 10.1 0 15.1-.3 4.3-5 6.8-8.9 4.7zM179.2 131.8c2.2-.1 4.1.3 5.6 2.1 1.5 1.9 1.9 4.1.9 6.4-1.6 3.8-3.6 7.2-6.5 10.1-3.1 3.1-6.7 5.6-10.9 7.2-4 1.5-8.1-1.1-8.2-5.4-.1-4.8-.1-9.6 0-14.4.1-3.3 2.8-6.1 6.1-5.9 2.6.1 5.2 0 7.8 0"/><path class="st68" d="M173.6 136.5c1.1 1.4 2.2 2.7 4 3.2.7.2 1.4.4 2.2.3.4 0 .8 0 1-.4.2-.5 0-.9-.3-1.2-1.5-1.6-3.3-2.2-5.4-2.2-.4 0-.9.2-1.3.1"/><path class="st69" d="M173.8 136.3c2.1-1.2 6.7.3 7.6 2.6.3.8 0 1.3-.7 1.6-2.3.9-6.7-1.5-7.1-3.9.1-.1.1-.2.2-.3z"/><path d="M138.8 135.8c1.1 0 1.8 0 2.2.8.3.8-.1 1.3-.7 1.8-1.4 1.4-3.2 2.1-5.2 2.3-.7 0-1.4 0-1.7-.7-.3-.7.1-1.3.6-1.9 1.4-1.5 3.2-2 4.8-2.3z" fill="#f8ba2d"/><path class="st69" d="M150.2 147.3c-.2 1.9-1.1 3.8-2.9 5.2-1 .8-2.1.3-2.1-.9 0-2.4.9-4.4 2.7-5.9.4-.4 1-.7 1.7-.4.7.4.6 1.1.6 2z"/><path class="st71" d="M139.8 147.3c-1.4 0-1.9-.5-1.5-1.4.9-2.2 2.6-3.7 4.8-4.6.5-.2 1.1-.2 1.6.3.4.5.2.9-.1 1.4-1.1 2.2-2.8 3.7-4.8 4.3z"/><path class="st69" d="M169.6 150.8c-.2.8 0 1.6-.8 1.9-.8.3-1.3-.2-1.8-.7-1.4-1.3-2.1-3-2.4-4.9-.1-.8 0-1.5.7-2 .8-.5 1.3.1 1.9.6 1.5 1.4 2.1 3.2 2.4 5.1z"/><path class="st71" d="M176.5 146.3c0 .8-.5 1.1-1.2 1-1.8-.2-5-3.1-5.3-4.8-.2-.7.1-1.2.9-1.3 1.8-.3 5.7 3.3 5.6 5.1z"/><path d="M172.7 87.6c-3.3 0-6.6-.5-9.9-.9-5.6-.6-11.1-1.5-16.7-2.3-2.1-.3-4.1-.7-6.1-1-.3-.6-.8-.7-1.3-.5 0 0-.1 0-.1.1l-3.3-.4c-2.1-.3-4.3-.7-6.4-1.1-6.5-1.4-13-2.9-19.4-4.4-7-1.6-13.9-3.5-20.7-5.8-4.2-1.4-8.3-3.1-12.4-5.1-5.8-2.9-11-6.2-14.8-11.6-1.9-2.7-2.7-5.7-2.5-9 .1-1.5.8-2.8.9-4.2-.2.1-.4.2-.5.4C54.2 47 49.9 52.9 47 59.7c-3 7.1-4.2 14.6-4.3 22.3l-.2 4c.1 1.8.1 1.8 1.9 1.8 14.7.1 29.4.2 44.1.2 8.7 0 17.4.1 26 .1 5.7 0 11.5.1 17.2.1 2.9-.1.5 0 2.9-.1h.1c7.3 0 14.6 0 21.9-.1 5.6 0 11.3-.1 16.9-.2-.1-.2-.5-.2-.8-.2z" fill="#eb802e"/><path d="M188.2 123c-1.9-.5-3.4-.7-4.5-.8-.3-.1-.7-.1-1-.2-15.3-2.8-30.5-5.8-45.8-8.2-1.2-.2-2.1 0-3 1-2.1 2.4-4.7 4.2-8 4.2-8.4.1-16.8.6-25.2.8-.4.1-.8.1-1.3.1H99c-.3 0-.6 0-.9-.1-.1 0-.2 0-.2.1-2 0-3.8.2-5.2.4h-1.3l-25.5.9c-6.9.3-13.8.3-20.6 1-2.3.2-4.5.5-6.6 1.5-1.5.7-1.8 1.6-1.1 3.1.8 1.7 2.3 2.6 4 3.1 2.5.8 5.1.8 7.7 1 2.9.2 5.3 1.4 6.8 3.9 2.1 3.6 4.9 4.5 9.1 3 2.9-1 5.5-2.7 8-4.6 2.5-2 5.2-3.5 8.6-3.4 1.9.3 3.4.8 4.4 1.1.6.4 1.3.8 1.8 1.3 4.9 4.7 10.7 5.7 17.1 4.5 5.2-1 10.1-3.3 15-5.2 4.8-1.8 9.7-3.3 14.8-3.8 6.9-.8 13.7-.8 20.6-.6 7.9.1 15.9.3 23.8.7h.4c.4 0 .3 0 .7.1.1 0 .1 0 .1-.1 3.1.2 6.5.2 6.7.1 5.1.2 10.1.5 15.2.7 3.2.1 6.5.5 9.7.1.6-.1 1.2 0 1.7-.7-1.5-.7-3-.9-4.5-1.1-6.1-1.2-12.3-2.3-18.4-3.5" fill="#fcb929"/><path class="st54" d="M148.8 174.8c-4.3-.8-8.2-2.5-12-4.7-.5-.3-1.1-.4-1.1-1.2-.3-.4-.6-.8-1.1-.8l-2.8-2-.3.2c-3.2-2.3-5.6-5.4-7.8-8.6-.9-1.4-1.9-2-3.7-2-20.8.1-41.7 0-62.5 0h-1.1c-.8 0-1.2.3-1.1 1.1.1 2.4 0 4.7.4 7.1 1 6.1 8.5 11.7 14.5 11.7 17.2-.1 34.3 0 51.5 0 .3 0 .6-.1 1 0v.4l6.3-.2h.9c.5-.3 1-.2 1.5-.2h20.2c-.9-.2-1.8-.6-2.8-.8z"/><path d="M202.9 150c-3.9 0-7.8 0-11.7-.1-.9 0-1.4.3-1.9 1-3.7 5.4-8.4 9.7-14.3 12.6-11.1 5.5-22.4 5.7-33.7.6-.1-.1-.2-.1-.3-.1-.4-.2-1.2-.5-2.1-1-5.3-3.2-9.9-7.2-13.3-12.3-.3-.5-.7-.6-1.2-.6-2 0-3.9-.1-5.9-.1l-76.5-.3c-1 0-1.3.3-1.2 1.3.2 3.4.8 6.7 1.7 9.9.1.6.4 1.3.7 2.1v.1c0 .1.1.2.1.2.8 1.7 1.8 3.4 1.8 3.4 2.6 4.6 6.5 7.8 12 9.1.5.2.9.1 1.4.1h64.8c.3-.7-.3-.7-.6-.8-.7-.2-1.4-.1-2.1-.1-16.5 0-32.9-.1-49.4 0-3.1 0-5.7-.8-8.2-2.3-3.4-2.1-5.7-5.1-6.6-9.1-.4-1.8-.3-3.7-.4-5.5 0-1.8.1-1.8 1.9-1.8h62.6c1.2 0 1.9.3 2.6 1.3 2.4 3.5 5.1 6.8 8.5 9.4s.6.4 1.5 1.1c.1.1.2.2.4.3.7.5 1.6 1.1 2.5 1.6.3.3.7.5 1 .8 3.1 1.9 6.5 3.2 10 4.2.5.2 1.1.3 1.6.3-5.8-.5-11.5-.1-17.3-.2-.5 0-1.1-.1-1.2.7.5 0 1 .1 1.6.1h32.2c6.9 0 13.8 0 20.6-.1-.3-.9-1-.7-1.6-.7-5.6.1-11.2-.2-16.7.1 4.4-.6 8.3-2.3 12-4.5 5.6-3.3 10.3-7.5 13.9-13 .7-1 1.5-1.5 2.7-1.4 1.9.1 3.8 0 5.7 0 1.4 0 2.4-.4 2.7-1.9.2-1.5.5-3-.3-4.4zm-52.8 25.4h-.3c.5 0 1 0 1.5.1-.4-.1-.8-.1-1.2-.1zm14 0c-.1 0-.1 0-.1.1.1.1-.2-.1.1-.1.1 0 0 0 0 0z" fill="#eb802f"/></svg>