<svg viewBox="0 0 759 172" fill="none" xmlns="http://www.w3.org/2000/svg">
<path d="M378.641 42.9639C349.003 42.9639 327.633 62.2977 327.633 91.2983C327.633 120.299 351.687 139.633 381.326 139.633C399.232 139.633 415.018 132.544 424.79 120.594L404.252 108.726C398.829 114.66 390.588 118.124 381.326 118.124C368.466 118.124 357.54 111.411 353.486 100.67H428.709C429.3 97.6624 429.649 94.5475 429.649 91.2715C429.649 62.2977 408.279 42.9639 378.641 42.9639ZM353.244 81.9C356.6 71.1858 365.782 64.4459 378.614 64.4459C391.473 64.4459 400.655 71.1858 403.984 81.9H353.244ZM667.722 42.9639C638.084 42.9639 616.714 62.2977 616.714 91.2983C616.714 120.299 640.769 139.633 670.407 139.633C688.314 139.633 704.099 132.544 713.871 120.594L693.334 108.726C687.911 114.66 679.669 118.124 670.407 118.124C657.548 118.124 646.621 111.411 642.567 100.67H717.791C718.381 97.6624 718.73 94.5475 718.73 91.2715C718.73 62.2977 697.361 42.9639 667.722 42.9639ZM642.353 81.9C645.708 71.1858 654.89 64.4459 667.722 64.4459C680.582 64.4459 689.763 71.1858 693.092 81.9H642.353ZM537.571 91.2983C537.571 107.41 548.095 118.151 564.418 118.151C575.478 118.151 583.774 113.129 588.042 104.939L608.66 116.835C600.123 131.067 584.123 139.633 564.418 139.633C534.752 139.633 513.41 120.299 513.41 91.2983C513.41 62.2977 534.779 42.9639 564.418 42.9639C584.123 42.9639 600.096 51.5298 608.66 65.7616L588.042 77.6573C583.774 69.4673 575.478 64.4459 564.418 64.4459C548.122 64.4459 537.571 75.1869 537.571 91.2983ZM759 13.4262V136.947H734.838V13.4262H759ZM99.1973 0L198.395 171.856H0L99.1973 0ZM347.204 13.4262L272.813 142.318L198.421 13.4262H226.315L272.813 93.9836L319.31 13.4262H347.204ZM505.356 45.6492V71.6692C502.671 70.8905 499.825 70.3534 496.765 70.3534C481.167 70.3534 469.919 81.0944 469.919 97.2059V136.947H445.757V45.6492H469.919V70.3534C469.919 56.7124 485.785 45.6492 505.356 45.6492Z" fill="var(--text-color)"/>
</svg>
